<?xml version="1.0" standalone="no"?>
<!DOCTYPE svg PUBLIC "-//W3C//DTD SVG 20010904//EN"
 "http://www.w3.org/TR/2001/REC-SVG-20010904/DTD/svg10.dtd">
<svg version="1.0" xmlns="http://www.w3.org/2000/svg"
 width="399.000000pt" height="643.000000pt" viewBox="0 0 399.000000 643.000000"
 preserveAspectRatio="xMidYMid meet">

<g transform="translate(0.000000,643.000000) scale(0.100000,-0.100000)"
fill="#000000" stroke="none">
<path d="M0 3215 l0 -3215 1995 0 1995 0 0 3215 0 3215 -128 0 c-89 0 -132 -4
-141 -12 -11 -10 -13 -10 -7 0 5 7 1 12 -9 12 -9 0 -13 -4 -10 -10 3 -5 2 -10
-4 -10 -5 0 -13 5 -16 10 -10 16 -485 13 -485 -2 0 -10 -3 -9 -9 1 -7 11 -9
11 -14 0 -4 -10 -6 -10 -6 -1 -1 7 -17 12 -45 12 -26 0 -46 -5 -49 -12 -4 -10
-6 -10 -6 0 -1 16 -1951 18 -1951 2 0 -5 -13 -10 -30 -10 -16 0 -30 5 -30 10
0 7 -182 10 -525 10 l-525 0 0 -3215z m230 3015 l0 -80 -80 0 -80 0 0 80 0 80
80 0 80 0 0 -80z m3407 38 l23 -21 25 23 c32 31 46 17 15 -15 l-23 -25 23 -25
c13 -14 20 -28 17 -32 -4 -3 -18 4 -32 17 l-25 23 -25 -23 c-14 -13 -28 -20
-32 -17 -3 4 4 18 17 32 l23 25 -21 23 c-37 40 -25 52 15 15z m-3310 -18 c8
-44 20 -45 27 -4 9 43 27 40 40 -7 l10 -34 10 38 c5 20 13 37 18 37 11 0 10
-7 -6 -59 -17 -57 -31 -62 -44 -14 l-10 38 -7 -33 c-7 -32 -21 -49 -31 -39
-11 11 -32 107 -23 107 5 0 12 -14 16 -30z m273 3 c0 -21 3 -24 12 -15 19 19
33 14 15 -6 -16 -17 -15 -20 3 -40 22 -23 5 -33 -18 -10 -9 9 -12 9 -12 0 0
-7 -4 -12 -10 -12 -5 0 -10 25 -10 55 0 30 5 55 10 55 6 0 10 -12 10 -27z
m174 5 c9 -12 16 -28 16 -35 0 -23 -39 -53 -70 -53 -30 0 -30 1 -30 55 l0 55
34 0 c25 0 39 -7 50 -22z m-264 -28 c16 -31 -4 -62 -38 -58 -28 3 -40 32 -28
64 8 21 54 17 66 -6z m52 8 c-7 -7 -12 -25 -12 -40 0 -15 -4 -28 -10 -28 -5 0
-10 18 -10 40 0 35 3 40 22 40 17 0 19 -3 10 -12z m258 -28 c0 -22 -4 -40 -10
-40 -5 0 -10 18 -10 40 0 22 5 40 10 40 6 0 10 -18 10 -40z m78 -2 c3 -37 2
-38 -28 -38 -27 0 -31 3 -28 22 2 14 12 24 28 28 15 4 20 9 13 13 -6 4 -19 4
-29 0 -12 -4 -15 -3 -10 6 4 7 18 11 29 9 17 -2 23 -11 25 -40z m90 15 l10
-28 7 28 c4 15 11 27 17 27 10 0 5 -23 -18 -77 -8 -20 -20 -33 -30 -33 -17 0
-17 1 -1 13 15 10 15 17 5 50 -14 44 -32 44 -36 -1 -5 -46 -22 -39 -22 8 0 38
2 40 29 40 23 0 31 -6 39 -27z m1535 10 c-18 -2 -48 -2 -65 0 -18 2 -4 4 32 4
36 0 50 -2 33 -4z m1437 -2913 l0 -2750 -1970 0 -1970 0 0 2750 0 2750 1970 0
1970 0 0 -2750z m0 -3035 l0 -265 -1970 0 -1970 0 0 265 0 265 1970 0 1970 0
0 -265z"/>
<path d="M710 6225 c0 -37 3 -45 18 -45 24 0 42 19 42 45 0 26 -18 45 -42 45
-15 0 -18 -8 -18 -45z"/>
<path d="M457 6225 c-9 -22 3 -46 22 -43 10 2 16 13 16 28 0 28 -29 40 -38 15z"/>
<path d="M857 6204 c-8 -8 1 -24 13 -24 4 0 10 7 14 15 5 15 -14 21 -27 9z"/>
<path d="M576 5604 c-9 -23 -7 -77 4 -94 15 -23 22 -5 9 24 -9 20 -9 32 -1 51
14 31 15 35 3 35 -5 0 -12 -7 -15 -16z"/>
<path d="M786 5606 c3 -9 -5 -15 -26 -20 -27 -5 -31 -9 -28 -33 3 -25 7 -28
43 -30 l40 -2 -3 50 c-3 33 -8 49 -18 49 -7 0 -11 -6 -8 -14z m2 -49 c4 -20
-25 -34 -40 -19 -15 15 -1 44 19 40 10 -2 19 -11 21 -21z"/>
<path d="M860 5610 c0 -5 5 -10 10 -10 6 0 10 5 10 10 0 6 -4 10 -10 10 -5 0
-10 -4 -10 -10z"/>
<path d="M948 5613 c20 -8 15 -81 -5 -86 -10 -3 2 -5 27 -5 25 0 37 2 28 5
-14 3 -18 15 -18 49 0 39 -2 44 -22 43 -13 0 -17 -3 -10 -6z"/>
<path d="M1040 5615 c0 -2 5 -16 12 -30 8 -19 8 -31 -1 -51 -13 -29 -6 -47 9
-24 18 28 10 110 -11 110 -5 0 -9 -2 -9 -5z"/>
<path d="M650 5584 c43 -16 44 -17 15 -23 -48 -10 -38 -36 15 -38 24 -1 39 1
33 5 -6 4 -13 18 -14 32 -3 20 -10 25 -34 27 -16 1 -23 0 -15 -3z m35 -44 c-3
-5 -15 -10 -26 -10 -11 0 -17 5 -14 10 3 6 15 10 26 10 11 0 17 -4 14 -10z"/>
<path d="M848 5583 c19 -7 15 -51 -5 -56 -10 -3 2 -5 27 -5 25 0 37 2 28 5
-12 3 -18 14 -18 34 0 24 -4 29 -22 28 -13 0 -17 -3 -10 -6z"/>
<path d="M3101 5280 c-77 -19 -124 -81 -124 -165 0 -95 58 -158 157 -170 30
-4 134 -5 232 -3 157 3 183 5 213 23 44 26 70 62 81 111 17 75 -15 150 -81
189 -31 18 -54 20 -239 22 -113 1 -220 -2 -239 -7z m115 -84 c29 -29 34 -41
34 -81 0 -40 -5 -52 -34 -81 -29 -29 -41 -34 -81 -34 -40 0 -52 5 -81 34 -29
29 -34 41 -34 81 0 40 5 52 34 81 29 29 41 34 81 34 40 0 52 -5 81 -34z m222
-48 c7 -7 12 -21 12 -33 0 -12 -5 -26 -12 -33 -7 -7 -21 -12 -33 -12 -12 0
-26 5 -33 12 -7 7 -12 21 -12 33 0 12 5 26 12 33 7 7 21 12 33 12 12 0 26 -5
33 -12z m80 5 c-34 -5 -38 -32 -5 -34 l22 -2 -22 -4 c-15 -3 -23 -12 -23 -24
0 -10 -4 -19 -10 -19 -5 0 -10 20 -10 45 l0 45 38 -1 c30 -2 32 -3 10 -6z m80
0 c-34 -5 -38 -32 -5 -34 l22 -2 -22 -4 c-15 -3 -23 -12 -23 -24 0 -10 -4 -19
-10 -19 -5 0 -10 20 -10 45 l0 45 38 -1 c30 -2 32 -3 10 -6z"/>
<path d="M3384 5136 c-10 -26 0 -51 21 -51 16 0 20 7 20 30 0 33 -30 49 -41
21z"/>
<path d="M3655 4690 c-18 -20 -17 -20 25 -20 42 0 43 0 25 20 -10 11 -21 20
-25 20 -4 0 -15 -9 -25 -20z"/>
<path d="M284 4575 c0 -49 1 -71 3 -48 2 23 2 64 0 90 -2 26 -3 8 -3 -42z"/>
<path d="M3658 4258 l22 -22 22 22 22 22 -44 0 -44 0 22 -22z"/>
<path d="M706 4036 c4 -10 -2 -16 -18 -18 -17 -2 -23 -9 -23 -28 0 -21 5 -25
30 -27 30 -1 30 0 26 43 -1 24 -7 44 -12 44 -4 0 -6 -6 -3 -14z m-1 -46 c0 -8
-8 -16 -17 -18 -13 -2 -18 3 -18 18 0 15 5 20 18 18 9 -2 17 -10 17 -18z"/>
<path d="M2946 4036 c4 -10 -2 -16 -18 -18 -17 -2 -23 -9 -23 -28 0 -21 5 -25
30 -27 30 -1 30 0 26 43 -1 24 -7 44 -12 44 -4 0 -6 -6 -3 -14z m-1 -46 c0 -8
-8 -16 -17 -18 -13 -2 -18 3 -18 18 0 15 5 20 18 18 9 -2 17 -10 17 -18z"/>
<path d="M190 4025 c-10 -12 -7 -17 14 -26 30 -14 33 -26 9 -32 -17 -4 -17 -5
0 -6 10 0 20 6 24 15 5 15 -4 26 -32 38 -6 3 -3 9 5 15 8 6 10 11 4 11 -6 0
-17 -7 -24 -15z"/>
<path d="M272 4024 c-7 -8 -8 -14 -2 -14 5 0 10 -11 10 -25 0 -18 5 -25 20
-25 11 0 20 4 20 10 0 5 -7 7 -15 4 -10 -4 -15 0 -15 15 0 13 7 21 18 22 13 0
14 2 2 6 -8 3 -17 9 -20 13 -3 4 -11 2 -18 -6z"/>
<path d="M512 4024 c-7 -8 -8 -14 -2 -14 5 0 10 -11 10 -25 0 -18 5 -25 20
-25 11 0 20 4 20 10 0 5 -7 7 -15 4 -10 -4 -15 0 -15 15 0 13 7 21 18 22 13 0
14 2 2 6 -8 3 -17 9 -20 13 -3 4 -11 2 -18 -6z"/>
<path d="M833 4033 c-19 -7 -16 -60 3 -67 25 -10 33 -7 44 14 19 36 -10 69
-47 53z m41 -18 c8 -21 -3 -45 -20 -45 -8 0 -17 7 -20 15 -8 21 2 45 20 45 7
0 16 -7 20 -15z"/>
<path d="M1775 4000 c0 -23 5 -40 11 -40 7 0 9 11 7 28 l-5 27 25 -30 24 -29
5 42 c2 27 -1 42 -8 42 -7 0 -10 -11 -7 -27 4 -27 4 -27 -11 -9 -9 11 -16 23
-16 28 0 4 -6 8 -12 8 -8 0 -13 -15 -13 -40z"/>
<path d="M1952 4024 c-7 -8 -8 -14 -2 -14 5 0 10 -11 10 -25 0 -18 5 -25 20
-25 11 0 20 4 20 10 0 5 -7 7 -15 4 -10 -4 -15 0 -15 15 0 13 7 21 18 22 13 0
14 2 2 6 -8 3 -17 9 -20 13 -3 4 -11 2 -18 -6z"/>
<path d="M2272 4024 c-7 -8 -8 -14 -2 -14 5 0 10 -11 10 -25 0 -18 5 -25 20
-25 11 0 20 4 20 10 0 5 -7 7 -15 4 -10 -4 -15 0 -15 15 0 13 7 21 18 22 13 0
14 2 2 6 -8 3 -17 9 -20 13 -3 4 -11 2 -18 -6z"/>
<path d="M2512 4024 c-7 -8 -8 -14 -2 -14 5 0 10 -11 10 -25 0 -18 5 -25 20
-25 11 0 20 4 20 10 0 5 -7 7 -15 4 -10 -4 -15 0 -15 15 0 13 7 21 18 22 13 0
14 2 2 6 -8 3 -17 9 -20 13 -3 4 -11 2 -18 -6z"/>
<path d="M2752 4024 c-7 -8 -8 -14 -2 -14 5 0 10 -11 10 -25 0 -18 5 -25 20
-25 11 0 20 4 20 10 0 5 -7 7 -15 4 -10 -4 -15 0 -15 15 0 13 7 21 18 22 13 0
14 2 2 6 -8 3 -17 9 -20 13 -3 4 -11 2 -18 -6z"/>
<path d="M364 4011 c19 -7 19 -8 -3 -14 -23 -6 -25 -29 -3 -33 7 -1 8 0 2 3
-15 7 -12 23 5 23 8 0 15 -7 15 -15 0 -8 8 -15 18 -14 10 0 12 3 5 6 -7 2 -13
16 -13 29 0 18 -5 24 -22 23 -21 0 -22 -1 -4 -8z"/>
<path d="M428 4013 c6 -3 12 -13 12 -23 0 -10 -6 -21 -12 -23 -7 -3 3 -5 22
-5 19 0 27 2 17 5 -23 6 -18 39 6 37 9 -1 15 2 12 6 -2 4 -19 7 -37 7 -18 1
-27 -1 -20 -4z"/>
<path d="M584 4006 c-10 -26 4 -46 31 -46 14 0 25 4 25 9 0 5 -8 7 -19 4 -10
-3 -22 0 -25 6 -5 7 3 11 19 11 17 0 25 5 23 13 -7 18 -47 21 -54 3z m39 -3
c-7 -2 -19 -2 -25 0 -7 3 -2 5 12 5 14 0 19 -2 13 -5z"/>
<path d="M905 3990 c0 -16 5 -30 11 -30 6 0 9 13 6 30 -2 17 -7 30 -11 30 -3
0 -6 -13 -6 -30z"/>
<path d="M939 4012 c8 -6 12 -19 8 -31 -3 -13 0 -21 8 -21 18 0 4 52 -16 58
-12 3 -12 2 0 -6z"/>
<path d="M1872 4011 c-23 -14 -10 -46 18 -46 20 0 25 5 25 25 0 26 -20 36 -43
21z m38 -21 c0 -11 -6 -20 -14 -20 -18 0 -29 16 -21 30 11 18 35 11 35 -10z"/>
<path d="M2104 3998 c21 -30 20 -55 -1 -61 -15 -4 -15 -5 2 -5 14 -1 26 12 41
43 17 36 18 45 7 45 -8 0 -12 -4 -9 -8 2 -4 0 -14 -5 -22 -8 -13 -10 -13 -18
0 -5 8 -7 18 -5 22 3 4 -2 8 -11 8 -15 0 -15 -2 -1 -22z"/>
<path d="M2184 4006 c-10 -26 4 -46 31 -46 14 0 25 4 25 9 0 5 -8 7 -19 4 -10
-3 -22 0 -25 6 -5 7 3 11 19 11 17 0 25 5 23 13 -7 18 -47 21 -54 3z m39 -3
c-7 -2 -19 -2 -25 0 -7 3 -2 5 12 5 14 0 19 -2 13 -5z"/>
<path d="M2425 4010 c-3 -5 7 -16 22 -25 l28 -16 -27 4 c-16 2 -28 0 -28 -5 0
-14 53 -5 58 10 2 6 -7 17 -20 22 -23 10 -23 11 0 6 12 -2 22 0 22 5 0 12 -47
12 -55 -1z"/>
<path d="M2604 4011 c19 -7 19 -8 -3 -14 -23 -6 -25 -29 -3 -33 7 -1 8 0 2 3
-15 7 -12 23 5 23 8 0 15 -7 15 -15 0 -8 8 -15 18 -14 10 0 12 3 5 6 -7 2 -13
16 -13 29 0 18 -5 24 -22 23 -21 0 -22 -1 -4 -8z"/>
<path d="M2668 4013 c6 -3 12 -13 12 -23 0 -10 -6 -21 -12 -23 -7 -3 3 -5 22
-5 19 0 27 2 17 5 -23 6 -18 39 6 37 9 -1 15 2 12 6 -2 4 -19 7 -37 7 -18 1
-27 -1 -20 -4z"/>
<path d="M2824 4006 c-10 -26 4 -46 31 -46 14 0 25 4 25 9 0 5 -8 7 -19 4 -10
-3 -22 0 -25 6 -5 7 3 11 19 11 17 0 25 5 23 13 -7 18 -47 21 -54 3z m39 -3
c-7 -2 -19 -2 -25 0 -7 3 -2 5 12 5 14 0 19 -2 13 -5z"/>
<path d="M3000 3970 c0 -5 5 -10 10 -10 6 0 10 5 10 10 0 6 -4 10 -10 10 -5 0
-10 -4 -10 -10z"/>
<path d="M177 3813 c-4 -3 -7 -60 -7 -125 l0 -118 750 0 750 0 0 125 0 125
-743 0 c-409 0 -747 -3 -750 -7z m1483 -118 l0 -115 -740 0 -740 0 0 108 c0
60 3 112 7 115 3 4 336 7 740 7 l733 0 0 -115z"/>
<path d="M401 3724 c0 -11 3 -14 6 -6 3 7 2 16 -1 19 -3 4 -6 -2 -5 -13z"/>
<path d="M1138 3733 c6 -2 12 -20 12 -38 0 -18 -6 -36 -12 -38 -7 -3 7 -5 32
-5 28 1 34 3 18 5 -24 4 -28 9 -28 38 0 18 6 36 13 38 6 3 -1 5 -18 5 -16 0
-24 -2 -17 -5z"/>
<path d="M439 3688 c4 -17 12 -33 19 -34 7 -1 8 0 2 3 -5 2 -10 18 -10 34 0
16 -4 29 -9 29 -5 0 -6 -14 -2 -32z"/>
<path d="M488 3685 c2 -19 7 -35 11 -35 4 0 5 16 3 35 -2 19 -7 35 -11 35 -4
0 -5 -16 -3 -35z"/>
<path d="M552 3706 c7 -8 15 -12 17 -11 5 6 -10 25 -20 25 -5 0 -4 -6 3 -14z"/>
<path d="M652 3706 c7 -8 15 -12 17 -11 5 6 -10 25 -20 25 -5 0 -4 -6 3 -14z"/>
<path d="M739 3704 c-17 -21 0 -48 32 -51 19 -1 20 -1 4 4 -40 10 -39 23 1 24
l39 2 -40 7 c-39 6 -39 7 -15 18 16 7 19 11 9 11 -9 1 -22 -6 -30 -15z"/>
<path d="M835 3685 c0 -19 5 -35 10 -35 7 0 9 15 7 35 -2 19 -7 35 -11 35 -3
0 -6 -16 -6 -35z"/>
<path d="M879 3712 c8 -6 12 -20 9 -36 -3 -17 -1 -26 7 -26 18 0 4 62 -15 68
-13 3 -13 2 -1 -6z"/>
<path d="M953 3713 c9 -2 25 -2 35 0 9 3 1 5 -18 5 -19 0 -27 -2 -17 -5z"/>
<path d="M1339 3704 c-16 -19 -1 -48 27 -51 15 -2 14 -1 -3 7 -27 11 -30 35
-5 49 9 6 12 11 6 11 -6 0 -17 -7 -25 -16z"/>
<path d="M1392 3673 c1 -48 1 -48 5 -8 3 22 10 43 16 47 8 5 6 8 -5 8 -15 0
-18 -8 -16 -47z"/>
<path d="M1460 3716 c0 -2 9 -6 20 -9 11 -3 20 -1 20 4 0 5 -9 9 -20 9 -11 0
-20 -2 -20 -4z"/>
<path d="M331 3694 c0 -11 3 -14 6 -6 3 7 2 16 -1 19 -3 4 -6 -2 -5 -13z"/>
<path d="M1295 3685 c0 -13 3 -21 8 -18 4 2 7 10 7 18 0 8 -3 16 -7 18 -5 3
-8 -5 -8 -18z"/>
<path d="M1442 3701 c5 -17 58 -35 58 -20 0 5 -8 9 -18 9 -10 0 -24 6 -31 13
-11 10 -13 9 -9 -2z"/>
<path d="M1230 3681 c0 -6 4 -13 10 -16 6 -3 7 1 4 9 -7 18 -14 21 -14 7z"/>
<path d="M368 3653 c7 -3 16 -2 19 1 4 3 -2 6 -13 5 -11 0 -14 -3 -6 -6z"/>
<path d="M553 3653 c9 -2 25 -2 35 0 9 3 1 5 -18 5 -19 0 -27 -2 -17 -5z"/>
<path d="M653 3653 c9 -2 25 -2 35 0 9 3 1 5 -18 5 -19 0 -27 -2 -17 -5z"/>
<path d="M1453 3653 c9 -2 23 -2 30 0 6 3 -1 5 -18 5 -16 0 -22 -2 -12 -5z"/>
<path d="M1358 3623 c7 -3 16 -2 19 1 4 3 -2 6 -13 5 -11 0 -14 -3 -6 -6z"/>
<path d="M1777 3813 c-4 -3 -7 -60 -7 -125 l0 -118 1000 0 1000 0 0 125 0 125
-993 0 c-547 0 -997 -3 -1000 -7z m1983 -118 l0 -115 -990 0 -990 0 0 108 c0
60 3 112 7 115 3 4 449 7 990 7 l983 0 0 -115z"/>
<path d="M2081 3718 c1 -17 2 -19 6 -5 3 11 14 17 33 17 19 0 30 -6 33 -17 4
-14 5 -12 6 5 1 19 -4 22 -39 22 -35 0 -40 -3 -39 -22z"/>
<path d="M2726 3724 c-8 -21 -7 -56 2 -71 4 -6 7 11 7 38 0 27 -1 49 -1 49 -1
0 -5 -7 -8 -16z"/>
<path d="M2810 3733 c19 -3 38 -10 42 -16 5 -8 8 -6 8 6 0 14 -8 17 -42 15
-41 -1 -41 -1 -8 -5z"/>
<path d="M2289 3704 c-16 -19 -1 -48 27 -51 15 -2 14 -1 -3 7 -13 5 -23 16
-23 25 0 9 10 20 23 25 15 6 17 9 6 9 -9 1 -22 -6 -30 -15z"/>
<path d="M2408 3713 c7 -3 16 -2 19 1 4 3 -2 6 -13 5 -11 0 -14 -3 -6 -6z"/>
<path d="M2476 3712 c6 -4 16 -17 23 -29 16 -31 27 -29 46 7 9 17 11 30 6 30
-5 0 -12 -11 -15 -25 -4 -14 -11 -25 -16 -25 -5 0 -12 11 -16 25 -3 14 -13 25
-23 25 -10 0 -12 -3 -5 -8z"/>
<path d="M2902 3706 c7 -8 15 -12 17 -11 5 6 -10 25 -20 25 -5 0 -4 -6 3 -14z"/>
<path d="M2998 3713 c7 -3 16 -2 19 1 4 3 -2 6 -13 5 -11 0 -14 -3 -6 -6z"/>
<path d="M3089 3704 c-16 -19 -1 -48 27 -51 15 -2 14 -1 -3 7 -13 5 -23 16
-23 25 0 9 10 20 23 25 15 6 17 9 6 9 -9 1 -22 -6 -30 -15z"/>
<path d="M3208 3713 c7 -3 16 -2 19 1 4 3 -2 6 -13 5 -11 0 -14 -3 -6 -6z"/>
<path d="M3276 3712 c6 -4 16 -17 23 -29 16 -31 27 -29 46 7 9 17 11 30 6 30
-5 0 -12 -11 -15 -25 -4 -14 -11 -25 -16 -25 -5 0 -12 11 -16 25 -3 14 -13 25
-23 25 -10 0 -12 -3 -5 -8z"/>
<path d="M3412 3690 c0 -19 2 -27 5 -17 2 9 2 25 0 35 -3 9 -5 1 -5 -18z"/>
<path d="M2245 3685 c0 -13 3 -21 8 -18 4 2 7 10 7 18 0 8 -3 16 -7 18 -5 3
-8 -5 -8 -18z"/>
<path d="M2440 3700 c0 -5 -10 -10 -22 -11 l-23 -1 23 -6 c13 -4 23 -11 22
-17 -1 -5 3 -11 8 -13 5 -1 7 11 4 28 -4 28 -12 42 -12 20z"/>
<path d="M3240 3700 c0 -5 -10 -10 -22 -11 l-23 -1 23 -6 c13 -4 23 -11 22
-17 -1 -5 3 -11 8 -13 5 -1 7 11 4 28 -4 28 -12 42 -12 20z"/>
<path d="M2808 3693 c7 -3 16 -2 19 1 4 3 -2 6 -13 5 -11 0 -14 -3 -6 -6z"/>
<path d="M2180 3681 c0 -6 4 -13 10 -16 6 -3 7 1 4 9 -7 18 -14 21 -14 7z"/>
<path d="M2347 3659 c7 -7 15 -10 18 -7 3 3 -2 9 -12 12 -14 6 -15 5 -6 -5z"/>
<path d="M2388 3658 c5 -5 16 -8 23 -6 8 3 3 7 -10 11 -17 4 -21 3 -13 -5z"/>
<path d="M3147 3659 c7 -7 15 -10 18 -7 3 3 -2 9 -12 12 -14 6 -15 5 -6 -5z"/>
<path d="M3188 3658 c5 -5 16 -8 23 -6 8 3 3 7 -10 11 -17 4 -21 3 -13 -5z"/>
<path d="M2113 3653 c9 -2 23 -2 30 0 6 3 -1 5 -18 5 -16 0 -22 -2 -12 -5z"/>
<path d="M2788 3653 c6 -2 18 -2 25 0 6 3 1 5 -13 5 -14 0 -19 -2 -12 -5z"/>
<path d="M2903 3653 c9 -2 25 -2 35 0 9 3 1 5 -18 5 -19 0 -27 -2 -17 -5z"/>
<path d="M3003 3653 c9 -2 25 -2 35 0 9 3 1 5 -18 5 -19 0 -27 -2 -17 -5z"/>
<path d="M2488 3623 c7 -3 16 -2 19 1 4 3 -2 6 -13 5 -11 0 -14 -3 -6 -6z"/>
<path d="M3288 3623 c7 -3 16 -2 19 1 4 3 -2 6 -13 5 -11 0 -14 -3 -6 -6z"/>
<path d="M465 3490 c-9 -14 1 -27 25 -33 11 -3 18 -1 14 4 -3 5 -12 9 -20 9
-8 0 -14 5 -14 11 0 6 9 9 20 6 11 -3 20 -1 20 4 0 12 -37 11 -45 -1z"/>
<path d="M745 3460 c0 -39 8 -52 18 -27 4 10 6 10 6 0 1 -7 6 -13 13 -13 6 0
4 7 -5 18 -10 10 -17 28 -17 40 0 12 -3 22 -7 22 -5 0 -8 -18 -8 -40z"/>
<path d="M537 3484 c-7 -7 5 -54 15 -60 5 -4 15 -1 21 5 9 9 8 11 -5 6 -14 -5
-18 -2 -18 13 0 12 8 22 18 24 14 3 13 5 -5 10 -12 3 -24 4 -26 2z"/>
<path d="M268 3473 c7 -3 16 -2 19 1 4 3 -2 6 -13 5 -11 0 -14 -3 -6 -6z"/>
<path d="M600 3475 c0 -8 29 -12 39 -5 9 5 4 8 -13 8 -14 0 -26 -2 -26 -3z"/>
<path d="M677 3473 c-3 -5 5 -8 18 -8 13 0 21 3 18 8 -2 4 -10 7 -18 7 -8 0
-16 -3 -18 -7z"/>
<path d="M828 3473 c7 -3 16 -2 19 1 4 3 -2 6 -13 5 -11 0 -14 -3 -6 -6z"/>
<path d="M905 3471 l20 -8 -20 -5 c-16 -5 -17 -6 -2 -7 9 0 17 -6 17 -12 0 -6
-9 -9 -20 -6 -11 3 -20 1 -20 -5 0 -5 10 -8 22 -6 33 4 37 58 5 57 -21 0 -21
-1 -2 -8z"/>
<path d="M196 3462 c-3 -5 1 -9 9 -9 8 0 12 4 9 9 -3 4 -7 8 -9 8 -2 0 -6 -4
-9 -8z"/>
<path d="M263 3453 c9 -2 23 -2 30 0 6 3 -1 5 -18 5 -16 0 -22 -2 -12 -5z"/>
<path d="M335 3440 c5 -15 2 -25 -6 -31 -11 -7 -9 -9 6 -9 24 0 28 30 7 50
-12 11 -13 9 -7 -10z"/>
<path d="M823 3453 c9 -2 23 -2 30 0 6 3 -1 5 -18 5 -16 0 -22 -2 -12 -5z"/>
<path d="M220 3430 c0 -5 5 -10 11 -10 5 0 7 5 4 10 -3 6 -8 10 -11 10 -2 0
-4 -4 -4 -10z"/>
<path d="M258 3428 c6 -6 18 -8 28 -6 14 3 12 5 -9 10 -19 3 -25 2 -19 -4z"/>
<path d="M460 3428 c0 -5 9 -8 19 -8 11 0 22 3 24 8 3 4 -6 7 -19 7 -13 0 -24
-3 -24 -7z"/>
<path d="M677 3428 c2 -5 10 -8 18 -8 8 0 16 3 18 8 3 4 -5 7 -18 7 -13 0 -21
-3 -18 -7z"/>
<path d="M818 3428 c6 -6 18 -8 28 -6 14 3 12 5 -9 10 -19 3 -25 2 -19 -4z"/>
<path d="M608 3423 c6 -2 18 -2 25 0 6 3 1 5 -13 5 -14 0 -19 -2 -12 -5z"/>
<path d="M2337 3420 c12 -5 26 -17 32 -27 6 -10 11 -13 11 -7 0 15 -34 44 -51
43 -8 0 -4 -4 8 -9z"/>
<path d="M2937 3420 c12 -5 26 -17 32 -27 6 -10 11 -13 11 -7 0 15 -34 44 -51
43 -8 0 -4 -4 8 -9z"/>
<path d="M2382 3335 c0 -16 2 -22 5 -12 2 9 2 23 0 30 -3 6 -5 -1 -5 -18z"/>
<path d="M2982 3335 c0 -16 2 -22 5 -12 2 9 2 23 0 30 -3 6 -5 -1 -5 -18z"/>
<path d="M3032 3283 c9 -2 18 -16 20 -31 3 -27 3 -27 9 3 4 28 2 31 -21 32
-14 0 -17 -1 -8 -4z"/>
<path d="M183 3228 c8 -13 18 -23 22 -23 4 0 14 10 23 23 8 12 10 22 4 22 -6
0 -14 -10 -18 -22 l-7 -23 -10 23 c-6 12 -14 22 -20 22 -5 0 -3 -10 6 -22z"/>
<path d="M606 3241 c-4 -5 3 -7 14 -4 23 6 26 13 6 13 -8 0 -17 -4 -20 -9z"/>
<path d="M688 3219 c3 -20 0 -34 -9 -40 -10 -6 -5 -8 16 -8 17 0 24 3 18 6 -7
2 -13 20 -13 39 0 19 -4 34 -8 34 -5 0 -6 -14 -4 -31z"/>
<path d="M885 3210 c0 -39 8 -52 18 -27 4 10 6 10 6 0 1 -7 6 -13 13 -13 6 0
4 7 -5 18 -10 10 -17 28 -17 40 0 12 -3 22 -7 22 -5 0 -8 -18 -8 -40z"/>
<path d="M2328 3243 c7 -3 16 -2 19 1 4 3 -2 6 -13 5 -11 0 -14 -3 -6 -6z"/>
<path d="M2928 3243 c7 -3 16 -2 19 1 4 3 -2 6 -13 5 -11 0 -14 -3 -6 -6z"/>
<path d="M257 3223 c-3 -5 5 -8 18 -8 13 0 21 3 18 8 -2 4 -10 7 -18 7 -8 0
-16 -3 -18 -7z"/>
<path d="M324 3200 c1 -19 7 -25 27 -27 23 -1 25 2 21 28 -5 33 -19 40 -18 8
1 -30 -22 -36 -27 -7 -4 21 -4 21 -3 -2z"/>
<path d="M415 3221 l20 -8 -20 -5 c-16 -5 -17 -6 -2 -7 9 0 17 -6 17 -12 0 -6
-9 -9 -20 -6 -11 3 -20 1 -20 -5 0 -5 10 -8 22 -6 33 4 37 58 5 57 -21 0 -21
-1 -2 -8z"/>
<path d="M478 3223 c7 -3 16 -2 19 1 4 3 -2 6 -13 5 -11 0 -14 -3 -6 -6z"/>
<path d="M757 3209 c4 -12 0 -25 -8 -30 -10 -6 -5 -9 16 -8 17 0 24 3 18 6 -7
2 -13 16 -13 29 0 13 -4 24 -9 24 -5 0 -7 -9 -4 -21z"/>
<path d="M814 3215 c-9 -23 3 -45 23 -44 17 1 17 2 1 6 -10 2 -18 14 -18 25 0
15 5 19 20 15 11 -3 20 -1 20 4 0 15 -40 10 -46 -6z"/>
<path d="M975 3221 l20 -8 -20 -5 c-16 -5 -17 -6 -2 -7 9 0 17 -6 17 -12 0 -6
-9 -9 -20 -6 -11 3 -20 1 -20 -5 0 -5 10 -8 22 -6 33 4 37 58 5 57 -21 0 -21
-1 -2 -8z"/>
<path d="M473 3203 c9 -2 23 -2 30 0 6 3 -1 5 -18 5 -16 0 -22 -2 -12 -5z"/>
<path d="M257 3178 c2 -5 10 -8 18 -8 8 0 16 3 18 8 3 4 -5 7 -18 7 -13 0 -21
-3 -18 -7z"/>
<path d="M468 3178 c6 -6 18 -8 28 -6 14 3 12 5 -9 10 -19 3 -25 2 -19 -4z"/>
<path d="M178 3173 c7 -3 16 -2 19 1 4 3 -2 6 -13 5 -11 0 -14 -3 -6 -6z"/>
<path d="M178 2993 c7 -3 16 -2 19 1 4 3 -2 6 -13 5 -11 0 -14 -3 -6 -6z"/>
<path d="M218 2993 c7 -3 16 -2 19 1 4 3 -2 6 -13 5 -11 0 -14 -3 -6 -6z"/>
<path d="M431 2993 c0 -7 -7 -13 -15 -13 -8 0 -17 -4 -20 -9 -4 -5 3 -7 14 -4
16 4 20 0 20 -17 0 -18 -4 -21 -21 -17 -15 4 -19 3 -12 -4 6 -6 19 -9 29 -7
16 2 18 9 13 43 -3 22 -7 34 -8 28z"/>
<path d="M745 2990 c-9 -14 1 -27 25 -33 11 -3 18 -1 14 4 -3 5 -12 9 -20 9
-8 0 -14 5 -14 11 0 6 9 9 20 6 11 -3 20 -1 20 4 0 12 -37 11 -45 -1z"/>
<path d="M1090 2963 c0 -24 4 -43 8 -43 5 0 8 10 8 21 -1 12 5 24 13 27 10 3
13 -2 9 -22 -3 -17 -1 -26 7 -26 18 0 6 50 -14 58 -9 3 -19 10 -23 16 -4 6 -8
-8 -8 -31z"/>
<path d="M1271 2993 c0 -7 -7 -13 -15 -13 -8 0 -17 -4 -20 -9 -4 -5 3 -7 14
-4 16 4 20 0 20 -17 0 -18 -4 -21 -21 -17 -15 4 -19 3 -12 -4 6 -6 19 -9 29
-7 16 2 18 9 13 43 -3 22 -7 34 -8 28z"/>
<path d="M1540 2996 c0 -2 9 -6 20 -9 11 -3 18 -1 14 4 -5 9 -34 13 -34 5z"/>
<path d="M2315 2990 c-9 -14 1 -27 25 -33 11 -3 18 -1 14 4 -3 5 -12 9 -20 9
-8 0 -14 5 -14 11 0 6 9 9 20 6 11 -3 20 -1 20 4 0 12 -37 11 -45 -1z"/>
<path d="M2595 2960 c0 -39 8 -52 18 -27 4 10 6 10 6 0 1 -7 6 -13 13 -13 6 0
4 7 -5 18 -10 10 -17 28 -17 40 0 12 -3 22 -7 22 -5 0 -8 -18 -8 -40z"/>
<path d="M957 2984 c-7 -7 5 -54 15 -60 5 -4 15 -1 21 5 9 9 8 11 -5 6 -14 -5
-18 -2 -18 13 0 12 8 22 18 24 14 3 13 5 -5 10 -12 3 -24 4 -26 2z"/>
<path d="M2387 2984 c-7 -7 5 -54 15 -60 5 -4 15 -1 21 5 9 9 8 11 -5 6 -14
-5 -18 -2 -18 13 0 12 8 22 18 24 14 3 13 5 -5 10 -12 3 -24 4 -26 2z"/>
<path d="M267 2959 c4 -12 0 -25 -8 -30 -10 -6 -5 -9 16 -8 17 0 24 3 18 6 -7
2 -13 16 -13 29 0 13 -4 24 -9 24 -5 0 -7 -9 -4 -21z"/>
<path d="M324 2971 c4 -5 14 -7 23 -4 13 5 15 1 11 -20 -3 -18 -1 -27 8 -27
23 0 0 55 -25 58 -14 2 -21 0 -17 -7z"/>
<path d="M467 2973 c-3 -5 5 -8 18 -8 13 0 21 3 18 8 -2 4 -10 7 -18 7 -8 0
-16 -3 -18 -7z"/>
<path d="M625 2971 l20 -8 -20 -5 c-16 -5 -17 -6 -2 -7 9 0 17 -6 17 -12 0 -6
-9 -9 -20 -6 -11 3 -20 1 -20 -5 0 -5 10 -8 22 -6 33 4 37 58 5 57 -21 0 -21
-1 -2 -8z"/>
<path d="M897 2959 c4 -12 0 -25 -8 -30 -10 -6 -5 -9 16 -8 17 0 24 3 18 6 -7
2 -13 16 -13 29 0 13 -4 24 -9 24 -5 0 -7 -9 -4 -21z"/>
<path d="M1024 2965 c-9 -23 3 -45 23 -44 17 1 17 2 1 6 -10 2 -18 14 -18 25
0 15 5 19 20 15 11 -3 20 -1 20 4 0 15 -40 10 -46 -6z"/>
<path d="M1178 2973 c7 -3 16 -2 19 1 4 3 -2 6 -13 5 -11 0 -14 -3 -6 -6z"/>
<path d="M2118 2973 c7 -3 16 -2 19 1 4 3 -2 6 -13 5 -11 0 -14 -3 -6 -6z"/>
<path d="M2450 2975 c0 -8 29 -12 39 -5 9 5 4 8 -13 8 -14 0 -26 -2 -26 -3z"/>
<path d="M2527 2973 c-3 -5 5 -8 18 -8 13 0 21 3 18 8 -2 4 -10 7 -18 7 -8 0
-16 -3 -18 -7z"/>
<path d="M2678 2973 c7 -3 16 -2 19 1 4 3 -2 6 -13 5 -11 0 -14 -3 -6 -6z"/>
<path d="M2755 2971 l20 -8 -20 -5 c-16 -5 -17 -6 -2 -7 9 0 17 -6 17 -12 0
-6 -9 -9 -20 -6 -11 3 -20 1 -20 -5 0 -5 10 -8 22 -6 33 4 37 58 5 57 -21 0
-21 -1 -2 -8z"/>
<path d="M217 2956 c-4 -10 -5 -21 -2 -24 9 -9 17 6 13 25 -3 17 -4 17 -11 -1z"/>
<path d="M2046 2962 c-3 -5 1 -9 9 -9 8 0 12 4 9 9 -3 4 -7 8 -9 8 -2 0 -6 -4
-9 -8z"/>
<path d="M180 2940 c0 -19 3 -21 12 -12 9 9 9 15 0 24 -9 9 -12 7 -12 -12z"/>
<path d="M530 2955 c0 -5 5 -17 10 -25 5 -8 10 -10 10 -5 0 6 -5 17 -10 25 -5
8 -10 11 -10 5z"/>
<path d="M557 2944 c3 -7 9 -14 14 -14 14 0 10 17 -5 23 -10 4 -13 1 -9 -9z"/>
<path d="M810 2955 c0 -5 5 -17 10 -25 5 -8 10 -10 10 -5 0 6 -5 17 -10 25 -5
8 -10 11 -10 5z"/>
<path d="M837 2944 c6 -15 23 -19 23 -5 0 5 -7 11 -14 14 -10 4 -13 1 -9 -9z"/>
<path d="M1173 2953 c9 -2 23 -2 30 0 6 3 -1 5 -18 5 -16 0 -22 -2 -12 -5z"/>
<path d="M2113 2953 c9 -2 23 -2 30 0 6 3 -1 5 -18 5 -16 0 -22 -2 -12 -5z"/>
<path d="M2185 2940 c5 -15 2 -25 -6 -31 -11 -7 -9 -9 6 -9 24 0 28 30 7 50
-12 11 -13 9 -7 -10z"/>
<path d="M2673 2953 c9 -2 23 -2 30 0 6 3 -1 5 -18 5 -16 0 -22 -2 -12 -5z"/>
<path d="M467 2928 c2 -5 10 -8 18 -8 8 0 16 3 18 8 3 4 -5 7 -18 7 -13 0 -21
-3 -18 -7z"/>
<path d="M740 2928 c0 -5 9 -8 19 -8 11 0 22 3 24 8 3 4 -6 7 -19 7 -13 0 -24
-3 -24 -7z"/>
<path d="M1168 2928 c6 -6 18 -8 28 -6 14 3 12 5 -9 10 -19 3 -25 2 -19 -4z"/>
<path d="M1555 2930 c-16 -7 -17 -9 -3 -9 9 -1 20 4 23 9 7 11 7 11 -20 0z"/>
<path d="M2070 2930 c0 -5 5 -10 11 -10 5 0 7 5 4 10 -3 6 -8 10 -11 10 -2 0
-4 -4 -4 -10z"/>
<path d="M2108 2928 c6 -6 18 -8 28 -6 14 3 12 5 -9 10 -19 3 -25 2 -19 -4z"/>
<path d="M2310 2928 c0 -5 9 -8 19 -8 11 0 22 3 24 8 3 4 -6 7 -19 7 -13 0
-24 -3 -24 -7z"/>
<path d="M2527 2928 c2 -5 10 -8 18 -8 8 0 16 3 18 8 3 4 -5 7 -18 7 -13 0
-21 -3 -18 -7z"/>
<path d="M2668 2928 c6 -6 18 -8 28 -6 14 3 12 5 -9 10 -19 3 -25 2 -19 -4z"/>
<path d="M2458 2923 c6 -2 18 -2 25 0 6 3 1 5 -13 5 -14 0 -19 -2 -12 -5z"/>
<path d="M177 2813 c-4 -3 -7 -60 -7 -125 l0 -118 750 0 750 0 0 125 0 125
-743 0 c-409 0 -747 -3 -750 -7z m1483 -118 l0 -115 -740 0 -740 0 0 108 c0
60 3 112 7 115 3 4 336 7 740 7 l733 0 0 -115z"/>
<path d="M488 2733 c6 -2 12 -20 12 -38 0 -18 -6 -36 -12 -38 -7 -3 7 -5 32
-5 28 1 34 3 18 5 -24 4 -28 9 -28 38 0 18 6 36 13 38 6 3 -1 5 -18 5 -16 0
-24 -2 -17 -5z"/>
<path d="M988 2733 c6 -2 12 -20 12 -38 0 -18 -6 -36 -12 -38 -7 -3 7 -5 32
-5 28 1 34 3 18 5 -24 4 -28 9 -28 38 0 18 6 36 13 38 6 3 -1 5 -18 5 -16 0
-24 -2 -17 -5z"/>
<path d="M608 2713 c7 -3 16 -2 19 1 4 3 -2 6 -13 5 -11 0 -14 -3 -6 -6z"/>
<path d="M710 2716 c0 -2 9 -6 20 -9 11 -3 20 -1 20 4 0 5 -9 9 -20 9 -11 0
-20 -2 -20 -4z"/>
<path d="M803 2713 c9 -2 25 -2 35 0 9 3 1 5 -18 5 -19 0 -27 -2 -17 -5z"/>
<path d="M1189 2704 c-16 -19 -1 -48 27 -51 15 -2 14 -1 -3 7 -27 11 -30 35
-5 49 9 6 12 11 6 11 -6 0 -17 -7 -25 -16z"/>
<path d="M1242 2673 c1 -48 1 -48 5 -8 3 22 10 43 16 47 8 5 6 8 -5 8 -15 0
-18 -8 -16 -47z"/>
<path d="M1310 2716 c0 -2 9 -6 20 -9 11 -3 20 -1 20 4 0 5 -9 9 -20 9 -11 0
-20 -2 -20 -4z"/>
<path d="M640 2700 c0 -5 -10 -10 -22 -11 l-23 -1 23 -6 c13 -4 23 -11 22 -17
-1 -5 3 -11 8 -13 5 -1 7 11 4 28 -4 28 -12 42 -12 20z"/>
<path d="M692 2701 c5 -17 58 -35 58 -20 0 5 -8 9 -18 9 -10 0 -24 6 -31 13
-11 10 -13 9 -9 -2z"/>
<path d="M1145 2685 c0 -13 3 -21 8 -18 4 2 7 10 7 18 0 8 -3 16 -7 18 -5 3
-8 -5 -8 -18z"/>
<path d="M1292 2701 c5 -17 58 -35 58 -20 0 5 -8 9 -18 9 -10 0 -24 6 -31 13
-11 10 -13 9 -9 -2z"/>
<path d="M1080 2681 c0 -6 4 -13 10 -16 6 -3 7 1 4 9 -7 18 -14 21 -14 7z"/>
<path d="M588 2658 c5 -5 16 -8 23 -6 8 3 3 7 -10 11 -17 4 -21 3 -13 -5z"/>
<path d="M703 2653 c9 -2 23 -2 30 0 6 3 -1 5 -18 5 -16 0 -22 -2 -12 -5z"/>
<path d="M1303 2653 c9 -2 23 -2 30 0 6 3 -1 5 -18 5 -16 0 -22 -2 -12 -5z"/>
<path d="M1208 2623 c7 -3 16 -2 19 1 4 3 -2 6 -13 5 -11 0 -14 -3 -6 -6z"/>
<path d="M2033 2778 c8 -13 18 -23 22 -23 4 0 14 10 23 23 8 12 10 22 4 22 -6
0 -14 -10 -18 -22 l-7 -23 -10 23 c-6 12 -14 22 -20 22 -5 0 -3 -10 6 -22z"/>
<path d="M2456 2791 c-4 -5 3 -7 14 -4 23 6 26 13 6 13 -8 0 -17 -4 -20 -9z"/>
<path d="M2538 2769 c3 -20 0 -34 -9 -40 -10 -6 -5 -8 16 -8 17 0 24 3 18 6
-7 2 -13 20 -13 39 0 19 -4 34 -8 34 -5 0 -6 -14 -4 -31z"/>
<path d="M2735 2760 c0 -39 8 -52 18 -27 4 10 6 10 6 0 1 -7 6 -13 13 -13 6 0
4 7 -5 18 -10 10 -17 28 -17 40 0 12 -3 22 -7 22 -5 0 -8 -18 -8 -40z"/>
<path d="M2107 2773 c-3 -5 5 -8 18 -8 13 0 21 3 18 8 -2 4 -10 7 -18 7 -8 0
-16 -3 -18 -7z"/>
<path d="M2174 2750 c1 -19 7 -25 27 -27 23 -1 25 2 21 28 -5 33 -19 40 -18 8
1 -30 -22 -36 -27 -7 -4 21 -4 21 -3 -2z"/>
<path d="M2265 2771 l20 -8 -20 -5 c-16 -5 -17 -6 -2 -7 9 0 17 -6 17 -12 0
-6 -9 -9 -20 -6 -11 3 -20 1 -20 -5 0 -5 10 -8 22 -6 33 4 37 58 5 57 -21 0
-21 -1 -2 -8z"/>
<path d="M2328 2773 c7 -3 16 -2 19 1 4 3 -2 6 -13 5 -11 0 -14 -3 -6 -6z"/>
<path d="M2607 2759 c4 -12 0 -25 -8 -30 -10 -6 -5 -9 16 -8 17 0 24 3 18 6
-7 2 -13 16 -13 29 0 13 -4 24 -9 24 -5 0 -7 -9 -4 -21z"/>
<path d="M2664 2765 c-9 -23 3 -45 23 -44 17 1 17 2 1 6 -10 2 -18 14 -18 25
0 15 5 19 20 15 11 -3 20 -1 20 4 0 15 -40 10 -46 -6z"/>
<path d="M2825 2771 l20 -8 -20 -5 c-16 -5 -17 -6 -2 -7 9 0 17 -6 17 -12 0
-6 -9 -9 -20 -6 -11 3 -20 1 -20 -5 0 -5 10 -8 22 -6 33 4 37 58 5 57 -21 0
-21 -1 -2 -8z"/>
<path d="M2323 2753 c9 -2 23 -2 30 0 6 3 -1 5 -18 5 -16 0 -22 -2 -12 -5z"/>
<path d="M2107 2728 c2 -5 10 -8 18 -8 8 0 16 3 18 8 3 4 -5 7 -18 7 -13 0
-21 -3 -18 -7z"/>
<path d="M2318 2728 c6 -6 18 -8 28 -6 14 3 12 5 -9 10 -19 3 -25 2 -19 -4z"/>
<path d="M2028 2723 c7 -3 16 -2 19 1 4 3 -2 6 -13 5 -11 0 -14 -3 -6 -6z"/>
<path d="M2028 2593 c7 -3 16 -2 19 1 4 3 -2 6 -13 5 -11 0 -14 -3 -6 -6z"/>
<path d="M2068 2593 c7 -3 16 -2 19 1 4 3 -2 6 -13 5 -11 0 -14 -3 -6 -6z"/>
<path d="M2281 2593 c0 -7 -7 -13 -15 -13 -8 0 -17 -4 -20 -9 -4 -5 3 -7 14
-4 16 4 20 0 20 -17 0 -18 -4 -21 -21 -17 -15 4 -19 3 -12 -4 6 -6 19 -9 29
-7 16 2 18 9 13 43 -3 22 -7 34 -8 28z"/>
<path d="M2595 2590 c-9 -14 1 -27 25 -33 11 -3 18 -1 14 4 -3 5 -12 9 -20 9
-8 0 -14 5 -14 11 0 6 9 9 20 6 11 -3 20 -1 20 4 0 12 -37 11 -45 -1z"/>
<path d="M2940 2563 c0 -24 4 -43 8 -43 5 0 8 10 8 21 -1 12 5 24 13 27 10 3
13 -2 9 -22 -3 -17 -1 -26 7 -26 18 0 6 50 -14 58 -9 3 -19 10 -23 16 -4 6 -8
-8 -8 -31z"/>
<path d="M3121 2593 c0 -7 -7 -13 -15 -13 -8 0 -17 -4 -20 -9 -4 -5 3 -7 14
-4 16 4 20 0 20 -17 0 -18 -4 -21 -21 -17 -15 4 -19 3 -12 -4 6 -6 19 -9 29
-7 16 2 18 9 13 43 -3 22 -7 34 -8 28z"/>
<path d="M2807 2584 c-7 -7 5 -54 15 -60 5 -4 15 -1 21 5 9 9 8 11 -5 6 -14
-5 -18 -2 -18 13 0 12 8 22 18 24 14 3 13 5 -5 10 -12 3 -24 4 -26 2z"/>
<path d="M2117 2559 c4 -12 0 -25 -8 -30 -10 -6 -5 -9 16 -8 17 0 24 3 18 6
-7 2 -13 16 -13 29 0 13 -4 24 -9 24 -5 0 -7 -9 -4 -21z"/>
<path d="M2174 2571 c4 -5 14 -7 23 -4 13 5 15 1 11 -20 -3 -18 -1 -27 8 -27
23 0 0 55 -25 58 -14 2 -21 0 -17 -7z"/>
<path d="M2317 2573 c-3 -5 5 -8 18 -8 13 0 21 3 18 8 -2 4 -10 7 -18 7 -8 0
-16 -3 -18 -7z"/>
<path d="M2475 2571 l20 -8 -20 -5 c-16 -5 -17 -6 -2 -7 9 0 17 -6 17 -12 0
-6 -9 -9 -20 -6 -11 3 -20 1 -20 -5 0 -5 10 -8 22 -6 33 4 37 58 5 57 -21 0
-21 -1 -2 -8z"/>
<path d="M2747 2559 c4 -12 0 -25 -8 -30 -10 -6 -5 -9 16 -8 17 0 24 3 18 6
-7 2 -13 16 -13 29 0 13 -4 24 -9 24 -5 0 -7 -9 -4 -21z"/>
<path d="M2874 2565 c-9 -23 3 -45 23 -44 17 1 17 2 1 6 -10 2 -18 14 -18 25
0 15 5 19 20 15 11 -3 20 -1 20 4 0 15 -40 10 -46 -6z"/>
<path d="M3028 2573 c7 -3 16 -2 19 1 4 3 -2 6 -13 5 -11 0 -14 -3 -6 -6z"/>
<path d="M2067 2556 c-4 -10 -5 -21 -2 -24 9 -9 17 6 13 25 -3 17 -4 17 -11
-1z"/>
<path d="M2030 2540 c0 -19 3 -21 12 -12 9 9 9 15 0 24 -9 9 -12 7 -12 -12z"/>
<path d="M2380 2555 c0 -5 5 -17 10 -25 5 -8 10 -10 10 -5 0 6 -5 17 -10 25
-5 8 -10 11 -10 5z"/>
<path d="M2407 2544 c6 -15 23 -19 23 -5 0 5 -7 11 -14 14 -10 4 -13 1 -9 -9z"/>
<path d="M2660 2555 c0 -5 5 -17 10 -25 5 -8 10 -10 10 -5 0 6 -5 17 -10 25
-5 8 -10 11 -10 5z"/>
<path d="M2687 2544 c6 -15 23 -19 23 -5 0 5 -7 11 -14 14 -10 4 -13 1 -9 -9z"/>
<path d="M3023 2553 c9 -2 23 -2 30 0 6 3 -1 5 -18 5 -16 0 -22 -2 -12 -5z"/>
<path d="M2317 2528 c2 -5 10 -8 18 -8 8 0 16 3 18 8 3 4 -5 7 -18 7 -13 0
-21 -3 -18 -7z"/>
<path d="M2590 2528 c0 -5 9 -8 19 -8 11 0 22 3 24 8 3 4 -6 7 -19 7 -13 0
-24 -3 -24 -7z"/>
<path d="M3018 2528 c6 -6 18 -8 28 -6 14 3 12 5 -9 10 -19 3 -25 2 -19 -4z"/>
<path d="M2035 2390 c-9 -14 1 -27 25 -33 11 -3 18 -1 14 4 -3 5 -12 9 -20 9
-8 0 -14 5 -14 11 0 6 9 9 20 6 11 -3 20 -1 20 4 0 12 -37 11 -45 -1z"/>
<path d="M2520 2363 c0 -24 4 -43 8 -43 5 0 8 10 8 21 -1 12 5 24 13 27 10 3
13 -2 9 -22 -3 -17 -1 -26 7 -26 18 0 6 50 -14 58 -9 3 -19 10 -23 16 -4 6 -8
-8 -8 -31z"/>
<path d="M2876 2391 c-4 -5 3 -7 14 -4 23 6 26 13 6 13 -8 0 -17 -4 -20 -9z"/>
<path d="M3401 2393 c0 -7 -7 -13 -15 -13 -8 0 -17 -4 -20 -9 -4 -5 3 -7 14
-4 16 4 20 0 20 -17 0 -18 -4 -21 -21 -17 -15 4 -19 3 -12 -4 6 -6 19 -9 29
-7 16 2 18 9 13 43 -3 22 -7 34 -8 28z"/>
<path d="M2667 2384 c-7 -7 5 -54 15 -60 5 -4 15 -1 21 5 9 9 8 11 -5 6 -14
-5 -18 -2 -18 13 0 12 8 22 18 24 14 3 13 5 -5 10 -12 3 -24 4 -26 2z"/>
<path d="M3087 2384 c-7 -7 5 -54 15 -60 5 -4 15 -1 21 5 9 9 8 11 -5 6 -14
-5 -18 -2 -18 13 0 12 8 22 18 24 14 3 13 5 -5 10 -12 3 -24 4 -26 2z"/>
<path d="M2104 2365 c-9 -23 3 -45 23 -44 17 1 17 2 1 6 -10 2 -18 14 -18 25
0 15 5 19 20 15 11 -3 20 -1 20 4 0 15 -40 10 -46 -6z"/>
<path d="M2170 2375 c0 -8 29 -12 39 -5 9 5 4 8 -13 8 -14 0 -26 -2 -26 -3z"/>
<path d="M2258 2373 c7 -3 16 -2 19 1 4 3 -2 6 -13 5 -11 0 -14 -3 -6 -6z"/>
<path d="M2328 2373 c7 -3 16 -2 19 1 4 3 -2 6 -13 5 -11 0 -14 -3 -6 -6z"/>
<path d="M2384 2371 c4 -5 14 -7 23 -4 13 5 15 1 11 -20 -3 -18 -1 -27 8 -27
23 0 0 55 -25 58 -14 2 -21 0 -17 -7z"/>
<path d="M2475 2371 l20 -8 -20 -5 c-16 -5 -17 -6 -2 -7 9 0 17 -6 17 -12 0
-6 -9 -9 -20 -6 -11 3 -20 1 -20 -5 0 -5 10 -8 22 -6 33 4 37 58 5 57 -21 0
-21 -1 -2 -8z"/>
<path d="M2597 2373 c-3 -5 5 -8 18 -8 13 0 21 3 18 8 -2 4 -10 7 -18 7 -8 0
-16 -3 -18 -7z"/>
<path d="M2755 2371 l20 -8 -20 -5 c-16 -5 -17 -6 -2 -7 9 0 17 -6 17 -12 0
-6 -9 -9 -20 -6 -11 3 -20 1 -20 -5 0 -5 10 -8 22 -6 33 4 37 58 5 57 -21 0
-21 -1 -2 -8z"/>
<path d="M2958 2373 c7 -3 16 -2 19 1 4 3 -2 6 -13 5 -11 0 -14 -3 -6 -6z"/>
<path d="M3005 2340 c0 -22 5 -40 10 -40 6 0 9 17 7 40 -2 22 -7 40 -11 40 -3
0 -6 -18 -6 -40z"/>
<path d="M3154 2350 c1 -19 7 -25 27 -27 23 -1 25 2 21 28 -5 33 -19 40 -18 8
1 -30 -22 -36 -27 -7 -4 21 -4 21 -3 -2z"/>
<path d="M3220 2375 c0 -8 29 -12 39 -5 9 5 4 8 -13 8 -14 0 -26 -2 -26 -3z"/>
<path d="M3308 2373 c7 -3 16 -2 19 1 4 3 -2 6 -13 5 -11 0 -14 -3 -6 -6z"/>
<path d="M2253 2353 c9 -2 23 -2 30 0 6 3 -1 5 -18 5 -16 0 -22 -2 -12 -5z"/>
<path d="M2323 2353 c9 -2 23 -2 30 0 6 3 -1 5 -18 5 -16 0 -22 -2 -12 -5z"/>
<path d="M2945 2350 c-9 -15 3 -29 25 -27 10 1 17 5 14 9 -3 4 -11 5 -19 1 -8
-3 -15 0 -15 5 0 6 8 13 18 15 15 4 15 5 0 6 -9 0 -20 -3 -23 -9z"/>
<path d="M3303 2353 c9 -2 23 -2 30 0 6 3 -1 5 -18 5 -16 0 -22 -2 -12 -5z"/>
<path d="M170 1855 l0 -485 750 0 750 0 0 485 0 485 -750 0 -750 0 0 -485z
m1130 465 c0 -6 63 -10 170 -10 l170 0 0 -425 0 -425 -560 0 -560 0 -2 43 -1
42 -4 -42 -4 -43 -165 0 -164 0 0 431 0 432 61 -7 c34 -3 109 -6 165 -6 l104
0 2 -37 1 -38 4 38 c4 35 6 37 41 38 20 0 137 0 260 0 140 -1 222 3 222 9 0 6
51 10 130 10 80 0 130 -4 130 -10z m-1073 -886 c-3 -3 -12 -4 -19 -1 -8 3 -5
6 6 6 11 1 17 -2 13 -5z m247 -30 c9 -23 8 -24 -14 -24 -19 0 -27 20 -13 33
11 11 20 8 27 -9z m156 -4 c0 -5 -4 -10 -10 -10 -5 0 -10 5 -10 10 0 6 5 10
10 10 6 0 10 -4 10 -10z m187 -12 c-3 -8 -6 -5 -6 6 -1 11 2 17 5 13 3 -3 4
-12 1 -19z m290 0 c-3 -8 -6 -5 -6 6 -1 11 2 17 5 13 3 -3 4 -12 1 -19z"/>
<path d="M2030 2328 c0 -5 9 -8 19 -8 11 0 22 3 24 8 3 4 -6 7 -19 7 -13 0
-24 -3 -24 -7z"/>
<path d="M2248 2328 c6 -6 18 -8 28 -6 14 3 12 5 -9 10 -19 3 -25 2 -19 -4z"/>
<path d="M2318 2328 c6 -6 18 -8 28 -6 14 3 12 5 -9 10 -19 3 -25 2 -19 -4z"/>
<path d="M2597 2328 c2 -5 10 -8 18 -8 8 0 16 3 18 8 3 4 -5 7 -18 7 -13 0
-21 -3 -18 -7z"/>
<path d="M3298 2328 c6 -6 18 -8 28 -6 14 3 12 5 -9 10 -19 3 -25 2 -19 -4z"/>
<path d="M2178 2323 c6 -2 18 -2 25 0 6 3 1 5 -13 5 -14 0 -19 -2 -12 -5z"/>
<path d="M3228 2323 c6 -2 18 -2 25 0 6 3 1 5 -13 5 -14 0 -19 -2 -12 -5z"/>
<path d="M1777 2163 c-4 -3 -7 -60 -7 -125 l0 -118 1000 0 1000 0 0 125 0 125
-993 0 c-547 0 -997 -3 -1000 -7z m1983 -118 l0 -115 -990 0 -990 0 0 108 c0
60 3 112 7 115 3 4 449 7 990 7 l983 0 0 -115z"/>
<path d="M2288 2083 c6 -2 12 -20 12 -38 0 -18 -6 -36 -12 -38 -7 -3 7 -5 32
-5 28 1 34 3 18 5 -24 4 -28 9 -28 38 0 18 6 36 13 38 6 3 -1 5 -18 5 -16 0
-24 -2 -17 -5z"/>
<path d="M2778 2068 c4 -16 7 -18 10 -8 3 8 10 18 16 22 6 5 2 8 -11 8 -17 0
-20 -4 -15 -22z"/>
<path d="M2838 2083 c14 -6 16 -43 2 -43 -5 0 -10 7 -10 15 0 8 -3 15 -8 15
-10 0 -35 -60 -28 -68 4 -3 9 4 13 16 7 28 17 28 29 1 9 -19 11 -16 21 25 10
44 9 46 -11 45 -11 0 -15 -3 -8 -6z"/>
<path d="M2408 2063 c7 -3 16 -2 19 1 4 3 -2 6 -13 5 -11 0 -14 -3 -6 -6z"/>
<path d="M2510 2066 c0 -2 9 -6 20 -9 11 -3 20 -1 20 4 0 5 -9 9 -20 9 -11 0
-20 -2 -20 -4z"/>
<path d="M2603 2063 c9 -2 25 -2 35 0 9 3 1 5 -18 5 -19 0 -27 -2 -17 -5z"/>
<path d="M2889 2054 c-17 -21 0 -48 32 -51 19 -1 20 -1 4 4 -40 10 -39 23 1
24 l39 2 -40 7 c-39 6 -39 7 -15 18 16 7 19 11 9 11 -9 1 -22 -6 -30 -15z"/>
<path d="M2989 2054 c-17 -21 0 -48 32 -51 19 -1 20 -1 4 4 -40 10 -39 23 1
24 l39 2 -40 7 c-39 6 -39 7 -15 18 16 7 19 11 9 11 -9 1 -22 -6 -30 -15z"/>
<path d="M3116 2055 c-18 -14 -18 -15 5 -34 13 -11 31 -20 39 -20 8 0 3 7 -12
15 -34 18 -35 28 -5 42 13 6 16 11 7 11 -8 0 -24 -6 -34 -14z"/>
<path d="M2440 2050 c0 -5 -10 -10 -22 -11 l-23 -1 23 -6 c13 -4 23 -11 22
-17 -1 -5 3 -11 8 -13 5 -1 7 11 4 28 -4 28 -12 42 -12 20z"/>
<path d="M2492 2051 c5 -17 58 -35 58 -20 0 5 -8 9 -18 9 -10 0 -24 6 -31 13
-11 10 -13 9 -9 -2z"/>
<path d="M2388 2008 c5 -5 16 -8 23 -6 8 3 3 7 -10 11 -17 4 -21 3 -13 -5z"/>
<path d="M2503 2003 c9 -2 23 -2 30 0 6 3 -1 5 -18 5 -16 0 -22 -2 -12 -5z"/>
<path d="M2318 1823 c7 -3 16 -2 19 1 4 3 -2 6 -13 5 -11 0 -14 -3 -6 -6z"/>
<path d="M2738 1823 c7 -3 16 -2 19 1 4 3 -2 6 -13 5 -11 0 -14 -3 -6 -6z"/>
<path d="M2915 1819 c-17 -6 -17 -8 -2 -8 15 -1 17 -12 17 -80 0 -79 0 -80
-27 -84 -16 -2 -1 -4 32 -4 33 0 48 2 33 4 -27 4 -27 5 -30 92 -3 83 -4 88
-23 80z"/>
<path d="M2361 1803 c7 -12 15 -20 18 -17 3 2 -3 12 -13 22 -17 16 -18 16 -5
-5z"/>
<path d="M2781 1803 c7 -12 15 -20 18 -17 3 2 -3 12 -13 22 -17 16 -18 16 -5
-5z"/>
<path d="M2323 1710 c-29 -31 -53 -60 -53 -63 0 -4 26 -6 58 -5 l57 2 -54 3
-54 4 53 54 c30 30 52 56 49 58 -2 1 -28 -23 -56 -53z"/>
<path d="M2743 1710 c-29 -31 -53 -60 -53 -63 0 -4 26 -6 58 -5 l57 2 -54 3
-54 4 53 54 c30 30 52 56 49 58 -2 1 -28 -23 -56 -53z"/>
<path d="M3032 1683 c9 -2 18 -16 20 -31 3 -27 3 -27 9 3 4 28 2 31 -21 32
-14 0 -17 -1 -8 -4z"/>
<path d="M2315 1340 c-9 -14 1 -27 25 -33 11 -3 18 -1 14 4 -3 5 -12 9 -20 9
-8 0 -14 5 -14 11 0 6 9 9 20 6 11 -3 20 -1 20 4 0 12 -37 11 -45 -1z"/>
<path d="M2595 1310 c0 -39 8 -52 18 -27 4 10 6 10 6 0 1 -7 6 -13 13 -13 6 0
4 7 -5 18 -10 10 -17 28 -17 40 0 12 -3 22 -7 22 -5 0 -8 -18 -8 -40z"/>
<path d="M2387 1334 c-7 -7 5 -54 15 -60 5 -4 15 -1 21 5 9 9 8 11 -5 6 -14
-5 -18 -2 -18 13 0 12 8 22 18 24 14 3 13 5 -5 10 -12 3 -24 4 -26 2z"/>
<path d="M2118 1323 c7 -3 16 -2 19 1 4 3 -2 6 -13 5 -11 0 -14 -3 -6 -6z"/>
<path d="M2450 1325 c0 -8 29 -12 39 -5 9 5 4 8 -13 8 -14 0 -26 -2 -26 -3z"/>
<path d="M2527 1323 c-3 -5 5 -8 18 -8 13 0 21 3 18 8 -2 4 -10 7 -18 7 -8 0
-16 -3 -18 -7z"/>
<path d="M2678 1323 c7 -3 16 -2 19 1 4 3 -2 6 -13 5 -11 0 -14 -3 -6 -6z"/>
<path d="M2755 1321 l20 -8 -20 -5 c-16 -5 -17 -6 -2 -7 9 0 17 -6 17 -12 0
-6 -9 -9 -20 -6 -11 3 -20 1 -20 -5 0 -5 10 -8 22 -6 33 4 37 58 5 57 -21 0
-21 -1 -2 -8z"/>
<path d="M2046 1312 c-3 -5 1 -9 9 -9 8 0 12 4 9 9 -3 4 -7 8 -9 8 -2 0 -6 -4
-9 -8z"/>
<path d="M2113 1303 c9 -2 23 -2 30 0 6 3 -1 5 -18 5 -16 0 -22 -2 -12 -5z"/>
<path d="M2185 1290 c5 -15 2 -25 -6 -31 -11 -7 -9 -9 6 -9 24 0 28 30 7 50
-12 11 -13 9 -7 -10z"/>
<path d="M2673 1303 c9 -2 23 -2 30 0 6 3 -1 5 -18 5 -16 0 -22 -2 -12 -5z"/>
<path d="M2070 1280 c0 -5 5 -10 11 -10 5 0 7 5 4 10 -3 6 -8 10 -11 10 -2 0
-4 -4 -4 -10z"/>
<path d="M2108 1278 c6 -6 18 -8 28 -6 14 3 12 5 -9 10 -19 3 -25 2 -19 -4z"/>
<path d="M2310 1278 c0 -5 9 -8 19 -8 11 0 22 3 24 8 3 4 -6 7 -19 7 -13 0
-24 -3 -24 -7z"/>
<path d="M2527 1278 c2 -5 10 -8 18 -8 8 0 16 3 18 8 3 4 -5 7 -18 7 -13 0
-21 -3 -18 -7z"/>
<path d="M2668 1278 c6 -6 18 -8 28 -6 14 3 12 5 -9 10 -19 3 -25 2 -19 -4z"/>
<path d="M2458 1273 c6 -2 18 -2 25 0 6 3 1 5 -13 5 -14 0 -19 -2 -12 -5z"/>
<path d="M465 1140 c-9 -14 1 -27 25 -33 11 -3 18 -1 14 4 -3 5 -12 9 -20 9
-8 0 -14 5 -14 11 0 6 9 9 20 6 11 -3 20 -1 20 4 0 12 -37 11 -45 -1z"/>
<path d="M745 1110 c0 -39 8 -52 18 -27 4 10 6 10 6 0 1 -7 6 -13 13 -13 6 0
4 7 -5 18 -10 10 -17 28 -17 40 0 12 -3 22 -7 22 -5 0 -8 -18 -8 -40z"/>
<path d="M2033 1128 c8 -13 18 -23 22 -23 4 0 14 10 23 23 8 12 10 22 4 22 -6
0 -14 -10 -18 -22 l-7 -23 -10 23 c-6 12 -14 22 -20 22 -5 0 -3 -10 6 -22z"/>
<path d="M2456 1141 c-4 -5 3 -7 14 -4 23 6 26 13 6 13 -8 0 -17 -4 -20 -9z"/>
<path d="M2538 1119 c3 -20 0 -34 -9 -40 -10 -6 -5 -8 16 -8 17 0 24 3 18 6
-7 2 -13 20 -13 39 0 19 -4 34 -8 34 -5 0 -6 -14 -4 -31z"/>
<path d="M2735 1110 c0 -39 8 -52 18 -27 4 10 6 10 6 0 1 -7 6 -13 13 -13 6 0
4 7 -5 18 -10 10 -17 28 -17 40 0 12 -3 22 -7 22 -5 0 -8 -18 -8 -40z"/>
<path d="M537 1134 c-7 -7 5 -54 15 -60 5 -4 15 -1 21 5 9 9 8 11 -5 6 -14 -5
-18 -2 -18 13 0 12 8 22 18 24 14 3 13 5 -5 10 -12 3 -24 4 -26 2z"/>
<path d="M268 1123 c7 -3 16 -2 19 1 4 3 -2 6 -13 5 -11 0 -14 -3 -6 -6z"/>
<path d="M600 1125 c0 -8 29 -12 39 -5 9 5 4 8 -13 8 -14 0 -26 -2 -26 -3z"/>
<path d="M677 1123 c-3 -5 5 -8 18 -8 13 0 21 3 18 8 -2 4 -10 7 -18 7 -8 0
-16 -3 -18 -7z"/>
<path d="M828 1123 c7 -3 16 -2 19 1 4 3 -2 6 -13 5 -11 0 -14 -3 -6 -6z"/>
<path d="M905 1121 l20 -8 -20 -5 c-16 -5 -17 -6 -2 -7 9 0 17 -6 17 -12 0 -6
-9 -9 -20 -6 -11 3 -20 1 -20 -5 0 -5 10 -8 22 -6 33 4 37 58 5 57 -21 0 -21
-1 -2 -8z"/>
<path d="M2107 1123 c-3 -5 5 -8 18 -8 13 0 21 3 18 8 -2 4 -10 7 -18 7 -8 0
-16 -3 -18 -7z"/>
<path d="M2174 1100 c1 -19 7 -25 27 -27 23 -1 25 2 21 28 -5 33 -19 40 -18 8
1 -30 -22 -36 -27 -7 -4 21 -4 21 -3 -2z"/>
<path d="M2265 1121 l20 -8 -20 -5 c-16 -5 -17 -6 -2 -7 9 0 17 -6 17 -12 0
-6 -9 -9 -20 -6 -11 3 -20 1 -20 -5 0 -5 10 -8 22 -6 33 4 37 58 5 57 -21 0
-21 -1 -2 -8z"/>
<path d="M2328 1123 c7 -3 16 -2 19 1 4 3 -2 6 -13 5 -11 0 -14 -3 -6 -6z"/>
<path d="M2607 1109 c4 -12 0 -25 -8 -30 -10 -6 -5 -9 16 -8 17 0 24 3 18 6
-7 2 -13 16 -13 29 0 13 -4 24 -9 24 -5 0 -7 -9 -4 -21z"/>
<path d="M2664 1115 c-9 -23 3 -45 23 -44 17 1 17 2 1 6 -10 2 -18 14 -18 25
0 15 5 19 20 15 11 -3 20 -1 20 4 0 15 -40 10 -46 -6z"/>
<path d="M2825 1121 l20 -8 -20 -5 c-16 -5 -17 -6 -2 -7 9 0 17 -6 17 -12 0
-6 -9 -9 -20 -6 -11 3 -20 1 -20 -5 0 -5 10 -8 22 -6 33 4 37 58 5 57 -21 0
-21 -1 -2 -8z"/>
<path d="M196 1112 c-3 -5 1 -9 9 -9 8 0 12 4 9 9 -3 4 -7 8 -9 8 -2 0 -6 -4
-9 -8z"/>
<path d="M263 1103 c9 -2 23 -2 30 0 6 3 -1 5 -18 5 -16 0 -22 -2 -12 -5z"/>
<path d="M335 1090 c5 -15 2 -25 -6 -31 -11 -7 -9 -9 6 -9 24 0 28 30 7 50
-12 11 -13 9 -7 -10z"/>
<path d="M823 1103 c9 -2 23 -2 30 0 6 3 -1 5 -18 5 -16 0 -22 -2 -12 -5z"/>
<path d="M2323 1103 c9 -2 23 -2 30 0 6 3 -1 5 -18 5 -16 0 -22 -2 -12 -5z"/>
<path d="M220 1080 c0 -5 5 -10 11 -10 5 0 7 5 4 10 -3 6 -8 10 -11 10 -2 0
-4 -4 -4 -10z"/>
<path d="M258 1078 c6 -6 18 -8 28 -6 14 3 12 5 -9 10 -19 3 -25 2 -19 -4z"/>
<path d="M460 1078 c0 -5 9 -8 19 -8 11 0 22 3 24 8 3 4 -6 7 -19 7 -13 0 -24
-3 -24 -7z"/>
<path d="M677 1078 c2 -5 10 -8 18 -8 8 0 16 3 18 8 3 4 -5 7 -18 7 -13 0 -21
-3 -18 -7z"/>
<path d="M818 1078 c6 -6 18 -8 28 -6 14 3 12 5 -9 10 -19 3 -25 2 -19 -4z"/>
<path d="M2107 1078 c2 -5 10 -8 18 -8 8 0 16 3 18 8 3 4 -5 7 -18 7 -13 0
-21 -3 -18 -7z"/>
<path d="M2318 1078 c6 -6 18 -8 28 -6 14 3 12 5 -9 10 -19 3 -25 2 -19 -4z"/>
<path d="M608 1073 c6 -2 18 -2 25 0 6 3 1 5 -13 5 -14 0 -19 -2 -12 -5z"/>
<path d="M2028 1073 c7 -3 16 -2 19 1 4 3 -2 6 -13 5 -11 0 -14 -3 -6 -6z"/>
<path d="M183 928 c8 -13 18 -23 22 -23 4 0 14 10 23 23 8 12 10 22 4 22 -6 0
-14 -10 -18 -22 l-7 -23 -10 23 c-6 12 -14 22 -20 22 -5 0 -3 -10 6 -22z"/>
<path d="M606 941 c-4 -5 3 -7 14 -4 23 6 26 13 6 13 -8 0 -17 -4 -20 -9z"/>
<path d="M688 919 c3 -20 0 -34 -9 -40 -10 -6 -5 -8 16 -8 17 0 24 3 18 6 -7
2 -13 20 -13 39 0 19 -4 34 -8 34 -5 0 -6 -14 -4 -31z"/>
<path d="M885 910 c0 -39 8 -52 18 -27 4 10 6 10 6 0 1 -7 6 -13 13 -13 6 0 4
7 -5 18 -10 10 -17 28 -17 40 0 12 -3 22 -7 22 -5 0 -8 -18 -8 -40z"/>
<path d="M2028 943 c7 -3 16 -2 19 1 4 3 -2 6 -13 5 -11 0 -14 -3 -6 -6z"/>
<path d="M2068 943 c7 -3 16 -2 19 1 4 3 -2 6 -13 5 -11 0 -14 -3 -6 -6z"/>
<path d="M2281 943 c0 -7 -7 -13 -15 -13 -8 0 -17 -4 -20 -9 -4 -5 3 -7 14 -4
16 4 20 0 20 -17 0 -18 -4 -21 -21 -17 -15 4 -19 3 -12 -4 6 -6 19 -9 29 -7
16 2 18 9 13 43 -3 22 -7 34 -8 28z"/>
<path d="M2595 940 c-9 -14 1 -27 25 -33 11 -3 18 -1 14 4 -3 5 -12 9 -20 9
-8 0 -14 5 -14 11 0 6 9 9 20 6 11 -3 20 -1 20 4 0 12 -37 11 -45 -1z"/>
<path d="M2940 913 c0 -24 4 -43 8 -43 5 0 8 10 8 21 -1 12 5 24 13 27 10 3
13 -2 9 -22 -3 -17 -1 -26 7 -26 18 0 6 50 -14 58 -9 3 -19 10 -23 16 -4 6 -8
-8 -8 -31z"/>
<path d="M3121 943 c0 -7 -7 -13 -15 -13 -8 0 -17 -4 -20 -9 -4 -5 3 -7 14 -4
16 4 20 0 20 -17 0 -18 -4 -21 -21 -17 -15 4 -19 3 -12 -4 6 -6 19 -9 29 -7
16 2 18 9 13 43 -3 22 -7 34 -8 28z"/>
<path d="M2807 934 c-7 -7 5 -54 15 -60 5 -4 15 -1 21 5 9 9 8 11 -5 6 -14 -5
-18 -2 -18 13 0 12 8 22 18 24 14 3 13 5 -5 10 -12 3 -24 4 -26 2z"/>
<path d="M257 923 c-3 -5 5 -8 18 -8 13 0 21 3 18 8 -2 4 -10 7 -18 7 -8 0
-16 -3 -18 -7z"/>
<path d="M324 900 c1 -19 7 -25 27 -27 23 -1 25 2 21 28 -5 33 -19 40 -18 8 1
-30 -22 -36 -27 -7 -4 21 -4 21 -3 -2z"/>
<path d="M415 921 l20 -8 -20 -5 c-16 -5 -17 -6 -2 -7 9 0 17 -6 17 -12 0 -6
-9 -9 -20 -6 -11 3 -20 1 -20 -5 0 -5 10 -8 22 -6 33 4 37 58 5 57 -21 0 -21
-1 -2 -8z"/>
<path d="M478 923 c7 -3 16 -2 19 1 4 3 -2 6 -13 5 -11 0 -14 -3 -6 -6z"/>
<path d="M757 909 c4 -12 0 -25 -8 -30 -10 -6 -5 -9 16 -8 17 0 24 3 18 6 -7
2 -13 16 -13 29 0 13 -4 24 -9 24 -5 0 -7 -9 -4 -21z"/>
<path d="M814 915 c-9 -23 3 -45 23 -44 17 1 17 2 1 6 -10 2 -18 14 -18 25 0
15 5 19 20 15 11 -3 20 -1 20 4 0 15 -40 10 -46 -6z"/>
<path d="M975 921 l20 -8 -20 -5 c-16 -5 -17 -6 -2 -7 9 0 17 -6 17 -12 0 -6
-9 -9 -20 -6 -11 3 -20 1 -20 -5 0 -5 10 -8 22 -6 33 4 37 58 5 57 -21 0 -21
-1 -2 -8z"/>
<path d="M2117 909 c4 -12 0 -25 -8 -30 -10 -6 -5 -9 16 -8 17 0 24 3 18 6 -7
2 -13 16 -13 29 0 13 -4 24 -9 24 -5 0 -7 -9 -4 -21z"/>
<path d="M2174 921 c4 -5 14 -7 23 -4 13 5 15 1 11 -20 -3 -18 -1 -27 8 -27
23 0 0 55 -25 58 -14 2 -21 0 -17 -7z"/>
<path d="M2317 923 c-3 -5 5 -8 18 -8 13 0 21 3 18 8 -2 4 -10 7 -18 7 -8 0
-16 -3 -18 -7z"/>
<path d="M2475 921 l20 -8 -20 -5 c-16 -5 -17 -6 -2 -7 9 0 17 -6 17 -12 0 -6
-9 -9 -20 -6 -11 3 -20 1 -20 -5 0 -5 10 -8 22 -6 33 4 37 58 5 57 -21 0 -21
-1 -2 -8z"/>
<path d="M2747 909 c4 -12 0 -25 -8 -30 -10 -6 -5 -9 16 -8 17 0 24 3 18 6 -7
2 -13 16 -13 29 0 13 -4 24 -9 24 -5 0 -7 -9 -4 -21z"/>
<path d="M2874 915 c-9 -23 3 -45 23 -44 17 1 17 2 1 6 -10 2 -18 14 -18 25 0
15 5 19 20 15 11 -3 20 -1 20 4 0 15 -40 10 -46 -6z"/>
<path d="M3028 923 c7 -3 16 -2 19 1 4 3 -2 6 -13 5 -11 0 -14 -3 -6 -6z"/>
<path d="M2067 906 c-4 -10 -5 -21 -2 -24 9 -9 17 6 13 25 -3 17 -4 17 -11 -1z"/>
<path d="M473 903 c9 -2 23 -2 30 0 6 3 -1 5 -18 5 -16 0 -22 -2 -12 -5z"/>
<path d="M2030 890 c0 -19 3 -21 12 -12 9 9 9 15 0 24 -9 9 -12 7 -12 -12z"/>
<path d="M2380 905 c0 -5 5 -17 10 -25 5 -8 10 -10 10 -5 0 6 -5 17 -10 25 -5
8 -10 11 -10 5z"/>
<path d="M2407 894 c3 -7 9 -14 14 -14 14 0 10 17 -5 23 -10 4 -13 1 -9 -9z"/>
<path d="M2660 905 c0 -5 5 -17 10 -25 5 -8 10 -10 10 -5 0 6 -5 17 -10 25 -5
8 -10 11 -10 5z"/>
<path d="M2687 894 c6 -15 23 -19 23 -5 0 5 -7 11 -14 14 -10 4 -13 1 -9 -9z"/>
<path d="M3023 903 c9 -2 23 -2 30 0 6 3 -1 5 -18 5 -16 0 -22 -2 -12 -5z"/>
<path d="M257 878 c2 -5 10 -8 18 -8 8 0 16 3 18 8 3 4 -5 7 -18 7 -13 0 -21
-3 -18 -7z"/>
<path d="M468 878 c6 -6 18 -8 28 -6 14 3 12 5 -9 10 -19 3 -25 2 -19 -4z"/>
<path d="M2317 878 c2 -5 10 -8 18 -8 8 0 16 3 18 8 3 4 -5 7 -18 7 -13 0 -21
-3 -18 -7z"/>
<path d="M2590 878 c0 -5 9 -8 19 -8 11 0 22 3 24 8 3 4 -6 7 -19 7 -13 0 -24
-3 -24 -7z"/>
<path d="M3018 878 c6 -6 18 -8 28 -6 14 3 12 5 -9 10 -19 3 -25 2 -19 -4z"/>
<path d="M178 873 c7 -3 16 -2 19 1 4 3 -2 6 -13 5 -11 0 -14 -3 -6 -6z"/>
<path d="M178 743 c7 -3 16 -2 19 1 4 3 -2 6 -13 5 -11 0 -14 -3 -6 -6z"/>
<path d="M218 743 c7 -3 16 -2 19 1 4 3 -2 6 -13 5 -11 0 -14 -3 -6 -6z"/>
<path d="M431 743 c0 -7 -7 -13 -15 -13 -8 0 -17 -4 -20 -9 -4 -5 3 -7 14 -4
16 4 20 0 20 -17 0 -18 -4 -21 -21 -17 -15 4 -19 3 -12 -4 6 -6 19 -9 29 -7
16 2 18 9 13 43 -3 22 -7 34 -8 28z"/>
<path d="M745 740 c-9 -14 1 -27 25 -33 11 -3 18 -1 14 4 -3 5 -12 9 -20 9 -8
0 -14 5 -14 11 0 6 9 9 20 6 11 -3 20 -1 20 4 0 12 -37 11 -45 -1z"/>
<path d="M1090 713 c0 -24 4 -43 8 -43 5 0 8 10 8 21 -1 12 5 24 13 27 10 3
13 -2 9 -22 -3 -17 -1 -26 7 -26 18 0 6 50 -14 58 -9 3 -19 10 -23 16 -4 6 -8
-8 -8 -31z"/>
<path d="M1271 743 c0 -7 -7 -13 -15 -13 -8 0 -17 -4 -20 -9 -4 -5 3 -7 14 -4
16 4 20 0 20 -17 0 -18 -4 -21 -21 -17 -15 4 -19 3 -12 -4 6 -6 19 -9 29 -7
16 2 18 9 13 43 -3 22 -7 34 -8 28z"/>
<path d="M2035 740 c-9 -14 1 -27 25 -33 11 -3 18 -1 14 4 -3 5 -12 9 -20 9
-8 0 -14 5 -14 11 0 6 9 9 20 6 11 -3 20 -1 20 4 0 12 -37 11 -45 -1z"/>
<path d="M2520 713 c0 -24 4 -43 8 -43 5 0 8 10 8 21 -1 12 5 24 13 27 10 3
13 -2 9 -22 -3 -17 -1 -26 7 -26 18 0 6 50 -14 58 -9 3 -19 10 -23 16 -4 6 -8
-8 -8 -31z"/>
<path d="M2876 741 c-4 -5 3 -7 14 -4 23 6 26 13 6 13 -8 0 -17 -4 -20 -9z"/>
<path d="M3401 743 c0 -7 -7 -13 -15 -13 -8 0 -17 -4 -20 -9 -4 -5 3 -7 14 -4
16 4 20 0 20 -17 0 -18 -4 -21 -21 -17 -15 4 -19 3 -12 -4 6 -6 19 -9 29 -7
16 2 18 9 13 43 -3 22 -7 34 -8 28z"/>
<path d="M957 734 c-7 -7 5 -54 15 -60 5 -4 15 -1 21 5 9 9 8 11 -5 6 -14 -5
-18 -2 -18 13 0 12 8 22 18 24 14 3 13 5 -5 10 -12 3 -24 4 -26 2z"/>
<path d="M2667 734 c-7 -7 5 -54 15 -60 5 -4 15 -1 21 5 9 9 8 11 -5 6 -14 -5
-18 -2 -18 13 0 12 8 22 18 24 14 3 13 5 -5 10 -12 3 -24 4 -26 2z"/>
<path d="M3087 734 c-7 -7 5 -54 15 -60 5 -4 15 -1 21 5 9 9 8 11 -5 6 -14 -5
-18 -2 -18 13 0 12 8 22 18 24 14 3 13 5 -5 10 -12 3 -24 4 -26 2z"/>
<path d="M267 709 c4 -12 0 -25 -8 -30 -10 -6 -5 -9 16 -8 17 0 24 3 18 6 -7
2 -13 16 -13 29 0 13 -4 24 -9 24 -5 0 -7 -9 -4 -21z"/>
<path d="M324 721 c4 -5 14 -7 23 -4 13 5 15 1 11 -20 -3 -18 -1 -27 8 -27 23
0 0 55 -25 58 -14 2 -21 0 -17 -7z"/>
<path d="M467 723 c-3 -5 5 -8 18 -8 13 0 21 3 18 8 -2 4 -10 7 -18 7 -8 0
-16 -3 -18 -7z"/>
<path d="M625 721 l20 -8 -20 -5 c-16 -5 -17 -6 -2 -7 9 0 17 -6 17 -12 0 -6
-9 -9 -20 -6 -11 3 -20 1 -20 -5 0 -5 10 -8 22 -6 33 4 37 58 5 57 -21 0 -21
-1 -2 -8z"/>
<path d="M897 709 c4 -12 0 -25 -8 -30 -10 -6 -5 -9 16 -8 17 0 24 3 18 6 -7
2 -13 16 -13 29 0 13 -4 24 -9 24 -5 0 -7 -9 -4 -21z"/>
<path d="M1024 715 c-9 -23 3 -45 23 -44 17 1 17 2 1 6 -10 2 -18 14 -18 25 0
15 5 19 20 15 11 -3 20 -1 20 4 0 15 -40 10 -46 -6z"/>
<path d="M1178 723 c7 -3 16 -2 19 1 4 3 -2 6 -13 5 -11 0 -14 -3 -6 -6z"/>
<path d="M2104 715 c-9 -23 3 -45 23 -44 17 1 17 2 1 6 -10 2 -18 14 -18 25 0
15 5 19 20 15 11 -3 20 -1 20 4 0 15 -40 10 -46 -6z"/>
<path d="M2170 725 c0 -8 29 -12 39 -5 9 5 4 8 -13 8 -14 0 -26 -2 -26 -3z"/>
<path d="M2258 723 c7 -3 16 -2 19 1 4 3 -2 6 -13 5 -11 0 -14 -3 -6 -6z"/>
<path d="M2328 723 c7 -3 16 -2 19 1 4 3 -2 6 -13 5 -11 0 -14 -3 -6 -6z"/>
<path d="M2384 721 c4 -5 14 -7 23 -4 13 5 15 1 11 -20 -3 -18 -1 -27 8 -27
23 0 0 55 -25 58 -14 2 -21 0 -17 -7z"/>
<path d="M2475 721 l20 -8 -20 -5 c-16 -5 -17 -6 -2 -7 9 0 17 -6 17 -12 0 -6
-9 -9 -20 -6 -11 3 -20 1 -20 -5 0 -5 10 -8 22 -6 33 4 37 58 5 57 -21 0 -21
-1 -2 -8z"/>
<path d="M2597 723 c-3 -5 5 -8 18 -8 13 0 21 3 18 8 -2 4 -10 7 -18 7 -8 0
-16 -3 -18 -7z"/>
<path d="M2755 721 l20 -8 -20 -5 c-16 -5 -17 -6 -2 -7 9 0 17 -6 17 -12 0 -6
-9 -9 -20 -6 -11 3 -20 1 -20 -5 0 -5 10 -8 22 -6 33 4 37 58 5 57 -21 0 -21
-1 -2 -8z"/>
<path d="M2958 723 c7 -3 16 -2 19 1 4 3 -2 6 -13 5 -11 0 -14 -3 -6 -6z"/>
<path d="M3005 690 c0 -22 5 -40 10 -40 6 0 9 17 7 40 -2 22 -7 40 -11 40 -3
0 -6 -18 -6 -40z"/>
<path d="M3154 700 c1 -19 7 -25 27 -27 23 -1 25 2 21 28 -5 33 -19 40 -18 8
1 -30 -22 -36 -27 -7 -4 21 -4 21 -3 -2z"/>
<path d="M3220 725 c0 -8 29 -12 39 -5 9 5 4 8 -13 8 -14 0 -26 -2 -26 -3z"/>
<path d="M3308 723 c7 -3 16 -2 19 1 4 3 -2 6 -13 5 -11 0 -14 -3 -6 -6z"/>
<path d="M217 706 c-4 -10 -5 -21 -2 -24 9 -9 17 6 13 25 -3 17 -4 17 -11 -1z"/>
<path d="M180 690 c0 -19 3 -21 12 -12 9 9 9 15 0 24 -9 9 -12 7 -12 -12z"/>
<path d="M530 705 c0 -5 5 -17 10 -25 5 -8 10 -10 10 -5 0 6 -5 17 -10 25 -5
8 -10 11 -10 5z"/>
<path d="M557 694 c6 -15 23 -19 23 -5 0 5 -7 11 -14 14 -10 4 -13 1 -9 -9z"/>
<path d="M810 705 c0 -5 5 -17 10 -25 5 -8 10 -10 10 -5 0 6 -5 17 -10 25 -5
8 -10 11 -10 5z"/>
<path d="M837 694 c6 -15 23 -19 23 -5 0 5 -7 11 -14 14 -10 4 -13 1 -9 -9z"/>
<path d="M1173 703 c9 -2 23 -2 30 0 6 3 -1 5 -18 5 -16 0 -22 -2 -12 -5z"/>
<path d="M2253 703 c9 -2 23 -2 30 0 6 3 -1 5 -18 5 -16 0 -22 -2 -12 -5z"/>
<path d="M2323 703 c9 -2 23 -2 30 0 6 3 -1 5 -18 5 -16 0 -22 -2 -12 -5z"/>
<path d="M2945 700 c-9 -15 3 -29 25 -27 10 1 17 5 14 9 -3 4 -11 5 -19 1 -8
-3 -15 0 -15 5 0 6 8 13 18 15 15 4 15 5 0 6 -9 0 -20 -3 -23 -9z"/>
<path d="M3303 703 c9 -2 23 -2 30 0 6 3 -1 5 -18 5 -16 0 -22 -2 -12 -5z"/>
<path d="M467 678 c2 -5 10 -8 18 -8 8 0 16 3 18 8 3 4 -5 7 -18 7 -13 0 -21
-3 -18 -7z"/>
<path d="M740 678 c0 -5 9 -8 19 -8 11 0 22 3 24 8 3 4 -6 7 -19 7 -13 0 -24
-3 -24 -7z"/>
<path d="M1168 678 c6 -6 18 -8 28 -6 14 3 12 5 -9 10 -19 3 -25 2 -19 -4z"/>
<path d="M2030 678 c0 -5 9 -8 19 -8 11 0 22 3 24 8 3 4 -6 7 -19 7 -13 0 -24
-3 -24 -7z"/>
<path d="M2248 678 c6 -6 18 -8 28 -6 14 3 12 5 -9 10 -19 3 -25 2 -19 -4z"/>
<path d="M2318 678 c6 -6 18 -8 28 -6 14 3 12 5 -9 10 -19 3 -25 2 -19 -4z"/>
<path d="M2597 678 c2 -5 10 -8 18 -8 8 0 16 3 18 8 3 4 -5 7 -18 7 -13 0 -21
-3 -18 -7z"/>
<path d="M3298 678 c6 -6 18 -8 28 -6 14 3 12 5 -9 10 -19 3 -25 2 -19 -4z"/>
<path d="M2178 673 c6 -2 18 -2 25 0 6 3 1 5 -13 5 -14 0 -19 -2 -12 -5z"/>
<path d="M3228 673 c6 -2 18 -2 25 0 6 3 1 5 -13 5 -14 0 -19 -2 -12 -5z"/>
<path d="M2948 343 c7 -3 16 -2 19 1 4 3 -2 6 -13 5 -11 0 -14 -3 -6 -6z"/>
<path d="M1579 334 c-1 -5 0 -22 1 -38 2 -25 -1 -28 -19 -23 -12 3 -21 1 -21
-4 0 -5 9 -9 21 -9 11 0 17 -4 14 -10 -3 -5 0 -10 8 -10 11 0 13 11 9 48 -4
44 -11 67 -13 46z"/>
<path d="M2098 333 c7 -3 16 -2 19 1 4 3 -2 6 -13 5 -11 0 -14 -3 -6 -6z"/>
<path d="M2655 328 c34 -19 36 -33 7 -39 -26 -6 -26 -7 6 -8 36 -1 36 -1 20
34 -7 15 -19 25 -32 25 -21 -1 -21 -1 -1 -12z"/>
<path d="M231 313 c7 -10 14 -20 16 -22 1 -2 1 6 0 18 -1 11 -8 21 -15 21 -12
0 -12 -3 -1 -17z"/>
<path d="M293 318 c0 -7 -4 -22 -8 -33 -10 -24 -5 -19 18 18 14 21 14 27 4 27
-8 0 -14 -6 -14 -12z"/>
<path d="M1168 284 c-16 -17 -28 -35 -28 -38 0 -3 15 -5 33 -5 29 2 30 2 5 6
l-28 4 27 23 c14 12 24 27 22 32 -2 6 -16 -4 -31 -22z"/>
<path d="M1342 290 c0 -19 2 -27 5 -17 2 9 2 25 0 35 -3 9 -5 1 -5 -18z"/>
<path d="M2160 316 c0 -2 9 -6 20 -9 11 -3 20 -1 20 4 0 5 -9 9 -20 9 -11 0
-20 -2 -20 -4z"/>
<path d="M2239 304 c-17 -21 0 -48 32 -51 19 -1 20 -1 4 4 -40 10 -39 23 1 24
l39 2 -40 7 c-39 6 -39 7 -15 18 16 7 19 11 9 11 -9 1 -22 -6 -30 -15z"/>
<path d="M2352 306 c7 -8 15 -12 17 -11 5 6 -10 25 -20 25 -5 0 -4 -6 3 -14z"/>
<path d="M2739 304 c-16 -19 -1 -48 27 -51 15 -2 14 -1 -3 7 -13 5 -23 16 -23
25 0 9 10 20 23 25 15 6 17 9 6 9 -9 1 -22 -6 -30 -15z"/>
<path d="M2848 313 c7 -3 16 -2 19 1 4 3 -2 6 -13 5 -11 0 -14 -3 -6 -6z"/>
<path d="M339 294 c-17 -21 0 -48 32 -51 19 -1 20 -1 4 4 -40 10 -39 23 1 24
l39 2 -40 7 c-39 6 -39 7 -15 18 16 7 19 11 9 11 -9 1 -22 -6 -30 -15z"/>
<path d="M452 296 c7 -8 15 -12 17 -11 5 6 -10 25 -20 25 -5 0 -4 -6 3 -14z"/>
<path d="M560 306 c0 -2 9 -6 20 -9 11 -3 20 -1 20 4 0 5 -9 9 -20 9 -11 0
-20 -2 -20 -4z"/>
<path d="M648 303 c7 -3 16 -2 19 1 4 3 -2 6 -13 5 -11 0 -14 -3 -6 -6z"/>
<path d="M835 275 c0 -19 5 -35 10 -35 7 0 9 15 7 35 -2 19 -7 35 -11 35 -3 0
-6 -16 -6 -35z"/>
<path d="M879 302 c8 -6 12 -20 9 -36 -3 -17 -1 -26 7 -26 18 0 4 62 -15 68
-13 3 -13 2 -1 -6z"/>
<path d="M2142 301 c5 -17 58 -35 58 -20 0 5 -8 9 -18 9 -10 0 -24 6 -31 13
-11 10 -13 9 -9 -2z"/>
<path d="M542 291 c5 -17 58 -35 58 -20 0 5 -8 9 -18 9 -10 0 -24 6 -31 13
-11 10 -13 9 -9 -2z"/>
<path d="M795 275 c0 -13 3 -21 8 -18 4 2 7 10 7 18 0 8 -3 16 -7 18 -5 3 -8
-5 -8 -18z"/>
<path d="M730 271 c0 -6 4 -13 10 -16 6 -3 7 1 4 9 -7 18 -14 21 -14 7z"/>
<path d="M2625 260 c-3 -5 1 -10 10 -10 9 0 13 5 10 10 -3 6 -8 10 -10 10 -2
0 -7 -4 -10 -10z"/>
<path d="M2695 260 c-3 -5 1 -10 10 -10 9 0 13 5 10 10 -3 6 -8 10 -10 10 -2
0 -7 -4 -10 -10z"/>
<path d="M2797 259 c7 -7 15 -10 18 -7 3 3 -2 9 -12 12 -14 6 -15 5 -6 -5z"/>
<path d="M260 250 c0 -5 5 -10 10 -10 6 0 10 5 10 10 0 6 -4 10 -10 10 -5 0
-10 -4 -10 -10z"/>
<path d="M2153 253 c9 -2 23 -2 30 0 6 3 -1 5 -18 5 -16 0 -22 -2 -12 -5z"/>
<path d="M2353 253 c9 -2 25 -2 35 0 9 3 1 5 -18 5 -19 0 -27 -2 -17 -5z"/>
<path d="M2853 253 c9 -2 25 -2 35 0 9 3 1 5 -18 5 -19 0 -27 -2 -17 -5z"/>
<path d="M2953 253 c9 -2 25 -2 35 0 9 3 1 5 -18 5 -19 0 -27 -2 -17 -5z"/>
<path d="M453 243 c9 -2 25 -2 35 0 9 3 1 5 -18 5 -19 0 -27 -2 -17 -5z"/>
<path d="M553 243 c9 -2 23 -2 30 0 6 3 -1 5 -18 5 -16 0 -22 -2 -12 -5z"/>
<path d="M653 243 c9 -2 25 -2 35 0 9 3 1 5 -18 5 -19 0 -27 -2 -17 -5z"/>
</g>
</svg>
